%TF.GenerationSoftware,KiCad,Pcbnew,(5.1.6)-1*%
%TF.CreationDate,2020-11-21T12:12:01+09:00*%
%TF.ProjectId,nixieLogicV2,6e697869-654c-46f6-9769-6356322e6b69,rev?*%
%TF.SameCoordinates,Original*%
%TF.FileFunction,Soldermask,Top*%
%TF.FilePolarity,Negative*%
%FSLAX46Y46*%
G04 Gerber Fmt 4.6, Leading zero omitted, Abs format (unit mm)*
G04 Created by KiCad (PCBNEW (5.1.6)-1) date 2020-11-21 12:12:01*
%MOMM*%
%LPD*%
G01*
G04 APERTURE LIST*
%ADD10C,0.100000*%
%ADD11O,2.500000X1.700000*%
%ADD12R,2.500000X1.700000*%
%ADD13O,2.005000X2.100000*%
%ADD14R,2.005000X2.100000*%
%ADD15O,3.600000X3.600000*%
%ADD16O,2.100000X2.100000*%
%ADD17R,2.100000X2.100000*%
%ADD18C,1.700000*%
%ADD19R,1.700000X1.700000*%
%ADD20C,2.100000*%
%ADD21R,2.500000X2.500000*%
%ADD22C,2.500000*%
%ADD23R,1.700000X2.500000*%
%ADD24O,1.700000X2.500000*%
%ADD25R,1.800000X1.800000*%
%ADD26O,1.800000X1.800000*%
%ADD27R,3.600000X3.600000*%
%ADD28C,3.100000*%
%ADD29O,1.700000X1.700000*%
%ADD30C,1.540000*%
%ADD31C,1.624000*%
%ADD32R,2.100000X2.005000*%
%ADD33O,2.100000X2.005000*%
G04 APERTURE END LIST*
D10*
G36*
X203200000Y-93980000D02*
G01*
X195072000Y-93980000D01*
X195072000Y-83820000D01*
X203200000Y-83820000D01*
X203200000Y-93980000D01*
G37*
X203200000Y-93980000D02*
X195072000Y-93980000D01*
X195072000Y-83820000D01*
X203200000Y-83820000D01*
X203200000Y-93980000D01*
D11*
%TO.C,U3*%
X143510000Y-71374000D03*
X135890000Y-78994000D03*
X143510000Y-73914000D03*
X135890000Y-76454000D03*
X143510000Y-76454000D03*
X135890000Y-73914000D03*
X143510000Y-78994000D03*
D12*
X135890000Y-71374000D03*
%TD*%
%TO.C,R1*%
G36*
G01*
X148560262Y-74539000D02*
X147603738Y-74539000D01*
G75*
G02*
X147332000Y-74267262I0J271738D01*
G01*
X147332000Y-73560738D01*
G75*
G02*
X147603738Y-73289000I271738J0D01*
G01*
X148560262Y-73289000D01*
G75*
G02*
X148832000Y-73560738I0J-271738D01*
G01*
X148832000Y-74267262D01*
G75*
G02*
X148560262Y-74539000I-271738J0D01*
G01*
G37*
G36*
G01*
X148560262Y-76589000D02*
X147603738Y-76589000D01*
G75*
G02*
X147332000Y-76317262I0J271738D01*
G01*
X147332000Y-75610738D01*
G75*
G02*
X147603738Y-75339000I271738J0D01*
G01*
X148560262Y-75339000D01*
G75*
G02*
X148832000Y-75610738I0J-271738D01*
G01*
X148832000Y-76317262D01*
G75*
G02*
X148560262Y-76589000I-271738J0D01*
G01*
G37*
%TD*%
D13*
%TO.C,Q1*%
X178816000Y-114554000D03*
X181356000Y-114554000D03*
D14*
X183896000Y-114554000D03*
D15*
X181356000Y-131214000D03*
%TD*%
D16*
%TO.C,D2*%
X189738000Y-114554000D03*
D17*
X194818000Y-114554000D03*
D15*
X192278000Y-131214000D03*
%TD*%
%TO.C,C2*%
G36*
G01*
X109845000Y-123981738D02*
X109845000Y-124938262D01*
G75*
G02*
X109573262Y-125210000I-271738J0D01*
G01*
X108866738Y-125210000D01*
G75*
G02*
X108595000Y-124938262I0J271738D01*
G01*
X108595000Y-123981738D01*
G75*
G02*
X108866738Y-123710000I271738J0D01*
G01*
X109573262Y-123710000D01*
G75*
G02*
X109845000Y-123981738I0J-271738D01*
G01*
G37*
G36*
G01*
X111895000Y-123981738D02*
X111895000Y-124938262D01*
G75*
G02*
X111623262Y-125210000I-271738J0D01*
G01*
X110916738Y-125210000D01*
G75*
G02*
X110645000Y-124938262I0J271738D01*
G01*
X110645000Y-123981738D01*
G75*
G02*
X110916738Y-123710000I271738J0D01*
G01*
X111623262Y-123710000D01*
G75*
G02*
X111895000Y-123981738I0J-271738D01*
G01*
G37*
%TD*%
%TO.C,C3*%
G36*
G01*
X130966738Y-91305000D02*
X131923262Y-91305000D01*
G75*
G02*
X132195000Y-91576738I0J-271738D01*
G01*
X132195000Y-92283262D01*
G75*
G02*
X131923262Y-92555000I-271738J0D01*
G01*
X130966738Y-92555000D01*
G75*
G02*
X130695000Y-92283262I0J271738D01*
G01*
X130695000Y-91576738D01*
G75*
G02*
X130966738Y-91305000I271738J0D01*
G01*
G37*
G36*
G01*
X130966738Y-93355000D02*
X131923262Y-93355000D01*
G75*
G02*
X132195000Y-93626738I0J-271738D01*
G01*
X132195000Y-94333262D01*
G75*
G02*
X131923262Y-94605000I-271738J0D01*
G01*
X130966738Y-94605000D01*
G75*
G02*
X130695000Y-94333262I0J271738D01*
G01*
X130695000Y-93626738D01*
G75*
G02*
X130966738Y-93355000I271738J0D01*
G01*
G37*
%TD*%
D18*
%TO.C,C4*%
X161290000Y-109220000D03*
X161290000Y-104220000D03*
%TD*%
%TO.C,C5*%
X215360000Y-78105000D03*
D19*
X213360000Y-78105000D03*
%TD*%
%TO.C,C6*%
X206375000Y-78105000D03*
D18*
X208375000Y-78105000D03*
%TD*%
%TO.C,C7*%
G36*
G01*
X123346738Y-58676600D02*
X124303262Y-58676600D01*
G75*
G02*
X124575000Y-58948338I0J-271738D01*
G01*
X124575000Y-59654862D01*
G75*
G02*
X124303262Y-59926600I-271738J0D01*
G01*
X123346738Y-59926600D01*
G75*
G02*
X123075000Y-59654862I0J271738D01*
G01*
X123075000Y-58948338D01*
G75*
G02*
X123346738Y-58676600I271738J0D01*
G01*
G37*
G36*
G01*
X123346738Y-56626600D02*
X124303262Y-56626600D01*
G75*
G02*
X124575000Y-56898338I0J-271738D01*
G01*
X124575000Y-57604862D01*
G75*
G02*
X124303262Y-57876600I-271738J0D01*
G01*
X123346738Y-57876600D01*
G75*
G02*
X123075000Y-57604862I0J271738D01*
G01*
X123075000Y-56898338D01*
G75*
G02*
X123346738Y-56626600I271738J0D01*
G01*
G37*
%TD*%
D17*
%TO.C,C8*%
X209550000Y-105410000D03*
D20*
X209550000Y-110410000D03*
%TD*%
D21*
%TO.C,C9*%
X138430000Y-121920000D03*
D22*
X143430000Y-121920000D03*
%TD*%
D23*
%TO.C,D1*%
X165735000Y-110490000D03*
D24*
X173355000Y-102870000D03*
X168275000Y-110490000D03*
X170815000Y-102870000D03*
X170815000Y-110490000D03*
X168275000Y-102870000D03*
X173355000Y-110490000D03*
X165735000Y-102870000D03*
%TD*%
D25*
%TO.C,J1*%
X85598000Y-87376000D03*
D26*
X85598000Y-89916000D03*
X85598000Y-92456000D03*
X85598000Y-94996000D03*
X85598000Y-97536000D03*
%TD*%
D25*
%TO.C,J2*%
X130556000Y-62992000D03*
D26*
X133096000Y-62992000D03*
X135636000Y-62992000D03*
X138176000Y-62992000D03*
X140716000Y-62992000D03*
X143256000Y-62992000D03*
X145796000Y-62992000D03*
X148336000Y-62992000D03*
X150876000Y-62992000D03*
X153416000Y-62992000D03*
%TD*%
D27*
%TO.C,J3*%
X209550000Y-71120000D03*
G36*
G01*
X208525000Y-63570000D02*
X210575000Y-63570000D01*
G75*
G02*
X211350000Y-64345000I0J-775000D01*
G01*
X211350000Y-65895000D01*
G75*
G02*
X210575000Y-66670000I-775000J0D01*
G01*
X208525000Y-66670000D01*
G75*
G02*
X207750000Y-65895000I0J775000D01*
G01*
X207750000Y-64345000D01*
G75*
G02*
X208525000Y-63570000I775000J0D01*
G01*
G37*
G36*
G01*
X203950000Y-66320000D02*
X205750000Y-66320000D01*
G75*
G02*
X206650000Y-67220000I0J-900000D01*
G01*
X206650000Y-69020000D01*
G75*
G02*
X205750000Y-69920000I-900000J0D01*
G01*
X203950000Y-69920000D01*
G75*
G02*
X203050000Y-69020000I0J900000D01*
G01*
X203050000Y-67220000D01*
G75*
G02*
X203950000Y-66320000I900000J0D01*
G01*
G37*
%TD*%
%TO.C,L1*%
G36*
G01*
X129562456Y-95812500D02*
X128247544Y-95812500D01*
G75*
G02*
X127980000Y-95544956I0J267544D01*
G01*
X127980000Y-94555044D01*
G75*
G02*
X128247544Y-94287500I267544J0D01*
G01*
X129562456Y-94287500D01*
G75*
G02*
X129830000Y-94555044I0J-267544D01*
G01*
X129830000Y-95544956D01*
G75*
G02*
X129562456Y-95812500I-267544J0D01*
G01*
G37*
G36*
G01*
X129562456Y-92837500D02*
X128247544Y-92837500D01*
G75*
G02*
X127980000Y-92569956I0J267544D01*
G01*
X127980000Y-91580044D01*
G75*
G02*
X128247544Y-91312500I267544J0D01*
G01*
X129562456Y-91312500D01*
G75*
G02*
X129830000Y-91580044I0J-267544D01*
G01*
X129830000Y-92569956D01*
G75*
G02*
X129562456Y-92837500I-267544J0D01*
G01*
G37*
%TD*%
D28*
%TO.C,L2*%
X208915000Y-125730000D03*
X208915000Y-118110000D03*
%TD*%
%TO.C,R2*%
G36*
G01*
X116215000Y-124938262D02*
X116215000Y-123981738D01*
G75*
G02*
X116486738Y-123710000I271738J0D01*
G01*
X117193262Y-123710000D01*
G75*
G02*
X117465000Y-123981738I0J-271738D01*
G01*
X117465000Y-124938262D01*
G75*
G02*
X117193262Y-125210000I-271738J0D01*
G01*
X116486738Y-125210000D01*
G75*
G02*
X116215000Y-124938262I0J271738D01*
G01*
G37*
G36*
G01*
X114165000Y-124938262D02*
X114165000Y-123981738D01*
G75*
G02*
X114436738Y-123710000I271738J0D01*
G01*
X115143262Y-123710000D01*
G75*
G02*
X115415000Y-123981738I0J-271738D01*
G01*
X115415000Y-124938262D01*
G75*
G02*
X115143262Y-125210000I-271738J0D01*
G01*
X114436738Y-125210000D01*
G75*
G02*
X114165000Y-124938262I0J271738D01*
G01*
G37*
%TD*%
D29*
%TO.C,R3*%
X180340000Y-102870000D03*
D18*
X180340000Y-110490000D03*
%TD*%
D29*
%TO.C,R4*%
X177165000Y-102870000D03*
D18*
X177165000Y-110490000D03*
%TD*%
D29*
%TO.C,R5*%
X183515000Y-110490000D03*
D18*
X183515000Y-102870000D03*
%TD*%
%TO.C,R6*%
X180340000Y-99060000D03*
D29*
X165100000Y-99060000D03*
%TD*%
%TO.C,R7*%
G36*
G01*
X166525000Y-66518262D02*
X166525000Y-65561738D01*
G75*
G02*
X166796738Y-65290000I271738J0D01*
G01*
X167503262Y-65290000D01*
G75*
G02*
X167775000Y-65561738I0J-271738D01*
G01*
X167775000Y-66518262D01*
G75*
G02*
X167503262Y-66790000I-271738J0D01*
G01*
X166796738Y-66790000D01*
G75*
G02*
X166525000Y-66518262I0J271738D01*
G01*
G37*
G36*
G01*
X164475000Y-66518262D02*
X164475000Y-65561738D01*
G75*
G02*
X164746738Y-65290000I271738J0D01*
G01*
X165453262Y-65290000D01*
G75*
G02*
X165725000Y-65561738I0J-271738D01*
G01*
X165725000Y-66518262D01*
G75*
G02*
X165453262Y-66790000I-271738J0D01*
G01*
X164746738Y-66790000D01*
G75*
G02*
X164475000Y-66518262I0J271738D01*
G01*
G37*
%TD*%
D18*
%TO.C,R8*%
X186690000Y-102870000D03*
D29*
X186690000Y-110490000D03*
%TD*%
D18*
%TO.C,R9*%
X193040000Y-110490000D03*
D29*
X193040000Y-102870000D03*
%TD*%
%TO.C,R10*%
G36*
G01*
X175125000Y-66518262D02*
X175125000Y-65561738D01*
G75*
G02*
X175396738Y-65290000I271738J0D01*
G01*
X176103262Y-65290000D01*
G75*
G02*
X176375000Y-65561738I0J-271738D01*
G01*
X176375000Y-66518262D01*
G75*
G02*
X176103262Y-66790000I-271738J0D01*
G01*
X175396738Y-66790000D01*
G75*
G02*
X175125000Y-66518262I0J271738D01*
G01*
G37*
G36*
G01*
X177175000Y-66518262D02*
X177175000Y-65561738D01*
G75*
G02*
X177446738Y-65290000I271738J0D01*
G01*
X178153262Y-65290000D01*
G75*
G02*
X178425000Y-65561738I0J-271738D01*
G01*
X178425000Y-66518262D01*
G75*
G02*
X178153262Y-66790000I-271738J0D01*
G01*
X177446738Y-66790000D01*
G75*
G02*
X177175000Y-66518262I0J271738D01*
G01*
G37*
%TD*%
D18*
%TO.C,R11*%
X189865000Y-102870000D03*
D29*
X189865000Y-110490000D03*
%TD*%
D18*
%TO.C,R12*%
X196215000Y-110490000D03*
D29*
X196215000Y-102870000D03*
%TD*%
%TO.C,R13*%
G36*
G01*
X187335000Y-66518262D02*
X187335000Y-65561738D01*
G75*
G02*
X187606738Y-65290000I271738J0D01*
G01*
X188313262Y-65290000D01*
G75*
G02*
X188585000Y-65561738I0J-271738D01*
G01*
X188585000Y-66518262D01*
G75*
G02*
X188313262Y-66790000I-271738J0D01*
G01*
X187606738Y-66790000D01*
G75*
G02*
X187335000Y-66518262I0J271738D01*
G01*
G37*
G36*
G01*
X185285000Y-66518262D02*
X185285000Y-65561738D01*
G75*
G02*
X185556738Y-65290000I271738J0D01*
G01*
X186263262Y-65290000D01*
G75*
G02*
X186535000Y-65561738I0J-271738D01*
G01*
X186535000Y-66518262D01*
G75*
G02*
X186263262Y-66790000I-271738J0D01*
G01*
X185556738Y-66790000D01*
G75*
G02*
X185285000Y-66518262I0J271738D01*
G01*
G37*
%TD*%
%TO.C,R14*%
G36*
G01*
X194955000Y-66518262D02*
X194955000Y-65561738D01*
G75*
G02*
X195226738Y-65290000I271738J0D01*
G01*
X195933262Y-65290000D01*
G75*
G02*
X196205000Y-65561738I0J-271738D01*
G01*
X196205000Y-66518262D01*
G75*
G02*
X195933262Y-66790000I-271738J0D01*
G01*
X195226738Y-66790000D01*
G75*
G02*
X194955000Y-66518262I0J271738D01*
G01*
G37*
G36*
G01*
X197005000Y-66518262D02*
X197005000Y-65561738D01*
G75*
G02*
X197276738Y-65290000I271738J0D01*
G01*
X197983262Y-65290000D01*
G75*
G02*
X198255000Y-65561738I0J-271738D01*
G01*
X198255000Y-66518262D01*
G75*
G02*
X197983262Y-66790000I-271738J0D01*
G01*
X197276738Y-66790000D01*
G75*
G02*
X197005000Y-66518262I0J271738D01*
G01*
G37*
%TD*%
%TO.C,R15*%
X144145000Y-102870000D03*
D18*
X136525000Y-102870000D03*
%TD*%
D30*
%TO.C,RV1*%
X168275000Y-117475000D03*
X170815000Y-114935000D03*
X173355000Y-117475000D03*
%TD*%
D20*
%TO.C,SW1*%
X101750000Y-129540000D03*
X101750000Y-134040000D03*
X95250000Y-129540000D03*
X95250000Y-134040000D03*
%TD*%
%TO.C,SW2*%
X109220000Y-134040000D03*
X109220000Y-129540000D03*
X115720000Y-134040000D03*
X115720000Y-129540000D03*
%TD*%
%TO.C,SW3*%
X169695000Y-58420000D03*
X169695000Y-62920000D03*
X163195000Y-58420000D03*
X163195000Y-62920000D03*
%TD*%
%TO.C,SW4*%
X173355000Y-62920000D03*
X173355000Y-58420000D03*
X179855000Y-62920000D03*
X179855000Y-58420000D03*
%TD*%
%TO.C,SW5*%
X190015000Y-58420000D03*
X190015000Y-62920000D03*
X183515000Y-58420000D03*
X183515000Y-62920000D03*
%TD*%
%TO.C,SW6*%
X193675000Y-62920000D03*
X193675000Y-58420000D03*
X200175000Y-62920000D03*
X200175000Y-58420000D03*
%TD*%
%TO.C,T1*%
G36*
G01*
X133975000Y-88440000D02*
X133975000Y-88090000D01*
G75*
G02*
X134150000Y-87915000I175000J0D01*
G01*
X135950000Y-87915000D01*
G75*
G02*
X136125000Y-88090000I0J-175000D01*
G01*
X136125000Y-88440000D01*
G75*
G02*
X135950000Y-88615000I-175000J0D01*
G01*
X134150000Y-88615000D01*
G75*
G02*
X133975000Y-88440000I0J175000D01*
G01*
G37*
G36*
G01*
X133975000Y-89710000D02*
X133975000Y-89360000D01*
G75*
G02*
X134150000Y-89185000I175000J0D01*
G01*
X135950000Y-89185000D01*
G75*
G02*
X136125000Y-89360000I0J-175000D01*
G01*
X136125000Y-89710000D01*
G75*
G02*
X135950000Y-89885000I-175000J0D01*
G01*
X134150000Y-89885000D01*
G75*
G02*
X133975000Y-89710000I0J175000D01*
G01*
G37*
G36*
G01*
X133975000Y-90980000D02*
X133975000Y-90630000D01*
G75*
G02*
X134150000Y-90455000I175000J0D01*
G01*
X135950000Y-90455000D01*
G75*
G02*
X136125000Y-90630000I0J-175000D01*
G01*
X136125000Y-90980000D01*
G75*
G02*
X135950000Y-91155000I-175000J0D01*
G01*
X134150000Y-91155000D01*
G75*
G02*
X133975000Y-90980000I0J175000D01*
G01*
G37*
G36*
G01*
X133975000Y-92250000D02*
X133975000Y-91900000D01*
G75*
G02*
X134150000Y-91725000I175000J0D01*
G01*
X135950000Y-91725000D01*
G75*
G02*
X136125000Y-91900000I0J-175000D01*
G01*
X136125000Y-92250000D01*
G75*
G02*
X135950000Y-92425000I-175000J0D01*
G01*
X134150000Y-92425000D01*
G75*
G02*
X133975000Y-92250000I0J175000D01*
G01*
G37*
G36*
G01*
X133975000Y-93520000D02*
X133975000Y-93170000D01*
G75*
G02*
X134150000Y-92995000I175000J0D01*
G01*
X135950000Y-92995000D01*
G75*
G02*
X136125000Y-93170000I0J-175000D01*
G01*
X136125000Y-93520000D01*
G75*
G02*
X135950000Y-93695000I-175000J0D01*
G01*
X134150000Y-93695000D01*
G75*
G02*
X133975000Y-93520000I0J175000D01*
G01*
G37*
G36*
G01*
X133975000Y-94790000D02*
X133975000Y-94440000D01*
G75*
G02*
X134150000Y-94265000I175000J0D01*
G01*
X135950000Y-94265000D01*
G75*
G02*
X136125000Y-94440000I0J-175000D01*
G01*
X136125000Y-94790000D01*
G75*
G02*
X135950000Y-94965000I-175000J0D01*
G01*
X134150000Y-94965000D01*
G75*
G02*
X133975000Y-94790000I0J175000D01*
G01*
G37*
G36*
G01*
X133975000Y-96060000D02*
X133975000Y-95710000D01*
G75*
G02*
X134150000Y-95535000I175000J0D01*
G01*
X135950000Y-95535000D01*
G75*
G02*
X136125000Y-95710000I0J-175000D01*
G01*
X136125000Y-96060000D01*
G75*
G02*
X135950000Y-96235000I-175000J0D01*
G01*
X134150000Y-96235000D01*
G75*
G02*
X133975000Y-96060000I0J175000D01*
G01*
G37*
G36*
G01*
X133975000Y-97330000D02*
X133975000Y-96980000D01*
G75*
G02*
X134150000Y-96805000I175000J0D01*
G01*
X135950000Y-96805000D01*
G75*
G02*
X136125000Y-96980000I0J-175000D01*
G01*
X136125000Y-97330000D01*
G75*
G02*
X135950000Y-97505000I-175000J0D01*
G01*
X134150000Y-97505000D01*
G75*
G02*
X133975000Y-97330000I0J175000D01*
G01*
G37*
G36*
G01*
X133975000Y-98600000D02*
X133975000Y-98250000D01*
G75*
G02*
X134150000Y-98075000I175000J0D01*
G01*
X135950000Y-98075000D01*
G75*
G02*
X136125000Y-98250000I0J-175000D01*
G01*
X136125000Y-98600000D01*
G75*
G02*
X135950000Y-98775000I-175000J0D01*
G01*
X134150000Y-98775000D01*
G75*
G02*
X133975000Y-98600000I0J175000D01*
G01*
G37*
G36*
G01*
X133975000Y-99870000D02*
X133975000Y-99520000D01*
G75*
G02*
X134150000Y-99345000I175000J0D01*
G01*
X135950000Y-99345000D01*
G75*
G02*
X136125000Y-99520000I0J-175000D01*
G01*
X136125000Y-99870000D01*
G75*
G02*
X135950000Y-100045000I-175000J0D01*
G01*
X134150000Y-100045000D01*
G75*
G02*
X133975000Y-99870000I0J175000D01*
G01*
G37*
G36*
G01*
X143275000Y-99870000D02*
X143275000Y-99520000D01*
G75*
G02*
X143450000Y-99345000I175000J0D01*
G01*
X145250000Y-99345000D01*
G75*
G02*
X145425000Y-99520000I0J-175000D01*
G01*
X145425000Y-99870000D01*
G75*
G02*
X145250000Y-100045000I-175000J0D01*
G01*
X143450000Y-100045000D01*
G75*
G02*
X143275000Y-99870000I0J175000D01*
G01*
G37*
G36*
G01*
X143275000Y-98600000D02*
X143275000Y-98250000D01*
G75*
G02*
X143450000Y-98075000I175000J0D01*
G01*
X145250000Y-98075000D01*
G75*
G02*
X145425000Y-98250000I0J-175000D01*
G01*
X145425000Y-98600000D01*
G75*
G02*
X145250000Y-98775000I-175000J0D01*
G01*
X143450000Y-98775000D01*
G75*
G02*
X143275000Y-98600000I0J175000D01*
G01*
G37*
G36*
G01*
X143275000Y-97330000D02*
X143275000Y-96980000D01*
G75*
G02*
X143450000Y-96805000I175000J0D01*
G01*
X145250000Y-96805000D01*
G75*
G02*
X145425000Y-96980000I0J-175000D01*
G01*
X145425000Y-97330000D01*
G75*
G02*
X145250000Y-97505000I-175000J0D01*
G01*
X143450000Y-97505000D01*
G75*
G02*
X143275000Y-97330000I0J175000D01*
G01*
G37*
G36*
G01*
X143275000Y-96060000D02*
X143275000Y-95710000D01*
G75*
G02*
X143450000Y-95535000I175000J0D01*
G01*
X145250000Y-95535000D01*
G75*
G02*
X145425000Y-95710000I0J-175000D01*
G01*
X145425000Y-96060000D01*
G75*
G02*
X145250000Y-96235000I-175000J0D01*
G01*
X143450000Y-96235000D01*
G75*
G02*
X143275000Y-96060000I0J175000D01*
G01*
G37*
G36*
G01*
X143275000Y-94790000D02*
X143275000Y-94440000D01*
G75*
G02*
X143450000Y-94265000I175000J0D01*
G01*
X145250000Y-94265000D01*
G75*
G02*
X145425000Y-94440000I0J-175000D01*
G01*
X145425000Y-94790000D01*
G75*
G02*
X145250000Y-94965000I-175000J0D01*
G01*
X143450000Y-94965000D01*
G75*
G02*
X143275000Y-94790000I0J175000D01*
G01*
G37*
G36*
G01*
X143275000Y-93520000D02*
X143275000Y-93170000D01*
G75*
G02*
X143450000Y-92995000I175000J0D01*
G01*
X145250000Y-92995000D01*
G75*
G02*
X145425000Y-93170000I0J-175000D01*
G01*
X145425000Y-93520000D01*
G75*
G02*
X145250000Y-93695000I-175000J0D01*
G01*
X143450000Y-93695000D01*
G75*
G02*
X143275000Y-93520000I0J175000D01*
G01*
G37*
G36*
G01*
X143275000Y-92250000D02*
X143275000Y-91900000D01*
G75*
G02*
X143450000Y-91725000I175000J0D01*
G01*
X145250000Y-91725000D01*
G75*
G02*
X145425000Y-91900000I0J-175000D01*
G01*
X145425000Y-92250000D01*
G75*
G02*
X145250000Y-92425000I-175000J0D01*
G01*
X143450000Y-92425000D01*
G75*
G02*
X143275000Y-92250000I0J175000D01*
G01*
G37*
G36*
G01*
X143275000Y-90980000D02*
X143275000Y-90630000D01*
G75*
G02*
X143450000Y-90455000I175000J0D01*
G01*
X145250000Y-90455000D01*
G75*
G02*
X145425000Y-90630000I0J-175000D01*
G01*
X145425000Y-90980000D01*
G75*
G02*
X145250000Y-91155000I-175000J0D01*
G01*
X143450000Y-91155000D01*
G75*
G02*
X143275000Y-90980000I0J175000D01*
G01*
G37*
G36*
G01*
X143275000Y-89710000D02*
X143275000Y-89360000D01*
G75*
G02*
X143450000Y-89185000I175000J0D01*
G01*
X145250000Y-89185000D01*
G75*
G02*
X145425000Y-89360000I0J-175000D01*
G01*
X145425000Y-89710000D01*
G75*
G02*
X145250000Y-89885000I-175000J0D01*
G01*
X143450000Y-89885000D01*
G75*
G02*
X143275000Y-89710000I0J175000D01*
G01*
G37*
G36*
G01*
X143275000Y-88440000D02*
X143275000Y-88090000D01*
G75*
G02*
X143450000Y-87915000I175000J0D01*
G01*
X145250000Y-87915000D01*
G75*
G02*
X145425000Y-88090000I0J-175000D01*
G01*
X145425000Y-88440000D01*
G75*
G02*
X145250000Y-88615000I-175000J0D01*
G01*
X143450000Y-88615000D01*
G75*
G02*
X143275000Y-88440000I0J175000D01*
G01*
G37*
%TD*%
D31*
%TO.C,U1*%
X119380000Y-102870000D03*
X119380000Y-100330000D03*
X119380000Y-97790000D03*
X119380000Y-95250000D03*
X119380000Y-92710000D03*
X119380000Y-90170000D03*
X119380000Y-87630000D03*
X119380000Y-85090000D03*
X119380000Y-82550000D03*
X119380000Y-80010000D03*
X119380000Y-77470000D03*
X119380000Y-74930000D03*
X119380000Y-72390000D03*
X119380000Y-69850000D03*
X119380000Y-67310000D03*
X119380000Y-64770000D03*
X119380000Y-62230000D03*
X119380000Y-59690000D03*
X119380000Y-57150000D03*
X93980000Y-57150000D03*
X93980000Y-59690000D03*
X93980000Y-62230000D03*
X93980000Y-64770000D03*
X93980000Y-67310000D03*
X93980000Y-69850000D03*
X93980000Y-72390000D03*
X93980000Y-74930000D03*
X93980000Y-77470000D03*
X93980000Y-80010000D03*
X93980000Y-82550000D03*
X93980000Y-85090000D03*
X93980000Y-87630000D03*
X93980000Y-90170000D03*
X93980000Y-92710000D03*
X93980000Y-95250000D03*
X93980000Y-97790000D03*
X93980000Y-100330000D03*
X93980000Y-102870000D03*
%TD*%
D15*
%TO.C,U2*%
X197970000Y-88900000D03*
D32*
X214630000Y-91440000D03*
D33*
X214630000Y-88900000D03*
X214630000Y-86360000D03*
%TD*%
M02*
