%TF.GenerationSoftware,KiCad,Pcbnew,(5.1.6)-1*%
%TF.CreationDate,2020-11-21T12:12:01+09:00*%
%TF.ProjectId,nixieLogicV2,6e697869-654c-46f6-9769-6356322e6b69,rev?*%
%TF.SameCoordinates,Original*%
%TF.FileFunction,Legend,Top*%
%TF.FilePolarity,Positive*%
%FSLAX46Y46*%
G04 Gerber Fmt 4.6, Leading zero omitted, Abs format (unit mm)*
G04 Created by KiCad (PCBNEW (5.1.6)-1) date 2020-11-21 12:12:01*
%MOMM*%
%LPD*%
G01*
G04 APERTURE LIST*
%ADD10C,0.150000*%
%ADD11C,0.010000*%
%ADD12C,0.120000*%
G04 APERTURE END LIST*
D10*
X219908380Y-130237142D02*
X218908380Y-130237142D01*
X219908380Y-129665714D01*
X218908380Y-129665714D01*
X219908380Y-129189523D02*
X219241714Y-129189523D01*
X218908380Y-129189523D02*
X218956000Y-129237142D01*
X219003619Y-129189523D01*
X218956000Y-129141904D01*
X218908380Y-129189523D01*
X219003619Y-129189523D01*
X219908380Y-128808571D02*
X219241714Y-128284761D01*
X219241714Y-128808571D02*
X219908380Y-128284761D01*
X219908380Y-127903809D02*
X219241714Y-127903809D01*
X218908380Y-127903809D02*
X218956000Y-127951428D01*
X219003619Y-127903809D01*
X218956000Y-127856190D01*
X218908380Y-127903809D01*
X219003619Y-127903809D01*
X219860761Y-127046666D02*
X219908380Y-127141904D01*
X219908380Y-127332380D01*
X219860761Y-127427619D01*
X219765523Y-127475238D01*
X219384571Y-127475238D01*
X219289333Y-127427619D01*
X219241714Y-127332380D01*
X219241714Y-127141904D01*
X219289333Y-127046666D01*
X219384571Y-126999047D01*
X219479809Y-126999047D01*
X219575047Y-127475238D01*
X219813142Y-125237142D02*
X219860761Y-125284761D01*
X219908380Y-125427619D01*
X219908380Y-125522857D01*
X219860761Y-125665714D01*
X219765523Y-125760952D01*
X219670285Y-125808571D01*
X219479809Y-125856190D01*
X219336952Y-125856190D01*
X219146476Y-125808571D01*
X219051238Y-125760952D01*
X218956000Y-125665714D01*
X218908380Y-125522857D01*
X218908380Y-125427619D01*
X218956000Y-125284761D01*
X219003619Y-125237142D01*
X219908380Y-124665714D02*
X219860761Y-124760952D01*
X219765523Y-124808571D01*
X218908380Y-124808571D01*
X219908380Y-124141904D02*
X219860761Y-124237142D01*
X219813142Y-124284761D01*
X219717904Y-124332380D01*
X219432190Y-124332380D01*
X219336952Y-124284761D01*
X219289333Y-124237142D01*
X219241714Y-124141904D01*
X219241714Y-123999047D01*
X219289333Y-123903809D01*
X219336952Y-123856190D01*
X219432190Y-123808571D01*
X219717904Y-123808571D01*
X219813142Y-123856190D01*
X219860761Y-123903809D01*
X219908380Y-123999047D01*
X219908380Y-124141904D01*
X219860761Y-122951428D02*
X219908380Y-123046666D01*
X219908380Y-123237142D01*
X219860761Y-123332380D01*
X219813142Y-123380000D01*
X219717904Y-123427619D01*
X219432190Y-123427619D01*
X219336952Y-123380000D01*
X219289333Y-123332380D01*
X219241714Y-123237142D01*
X219241714Y-123046666D01*
X219289333Y-122951428D01*
X219908380Y-122522857D02*
X218908380Y-122522857D01*
X219527428Y-122427619D02*
X219908380Y-122141904D01*
X219241714Y-122141904D02*
X219622666Y-122522857D01*
X219908380Y-120475238D02*
X219908380Y-120951428D01*
X218908380Y-120951428D01*
X219908380Y-119999047D02*
X219860761Y-120094285D01*
X219813142Y-120141904D01*
X219717904Y-120189523D01*
X219432190Y-120189523D01*
X219336952Y-120141904D01*
X219289333Y-120094285D01*
X219241714Y-119999047D01*
X219241714Y-119856190D01*
X219289333Y-119760952D01*
X219336952Y-119713333D01*
X219432190Y-119665714D01*
X219717904Y-119665714D01*
X219813142Y-119713333D01*
X219860761Y-119760952D01*
X219908380Y-119856190D01*
X219908380Y-119999047D01*
X219241714Y-118808571D02*
X220051238Y-118808571D01*
X220146476Y-118856190D01*
X220194095Y-118903809D01*
X220241714Y-118999047D01*
X220241714Y-119141904D01*
X220194095Y-119237142D01*
X219860761Y-118808571D02*
X219908380Y-118903809D01*
X219908380Y-119094285D01*
X219860761Y-119189523D01*
X219813142Y-119237142D01*
X219717904Y-119284761D01*
X219432190Y-119284761D01*
X219336952Y-119237142D01*
X219289333Y-119189523D01*
X219241714Y-119094285D01*
X219241714Y-118903809D01*
X219289333Y-118808571D01*
X219908380Y-118332380D02*
X219241714Y-118332380D01*
X218908380Y-118332380D02*
X218956000Y-118380000D01*
X219003619Y-118332380D01*
X218956000Y-118284761D01*
X218908380Y-118332380D01*
X219003619Y-118332380D01*
X219860761Y-117427619D02*
X219908380Y-117522857D01*
X219908380Y-117713333D01*
X219860761Y-117808571D01*
X219813142Y-117856190D01*
X219717904Y-117903809D01*
X219432190Y-117903809D01*
X219336952Y-117856190D01*
X219289333Y-117808571D01*
X219241714Y-117713333D01*
X219241714Y-117522857D01*
X219289333Y-117427619D01*
X219908380Y-116237142D02*
X218908380Y-116237142D01*
X219622666Y-115903809D01*
X218908380Y-115570476D01*
X219908380Y-115570476D01*
X219908380Y-114951428D02*
X219860761Y-115046666D01*
X219813142Y-115094285D01*
X219717904Y-115141904D01*
X219432190Y-115141904D01*
X219336952Y-115094285D01*
X219289333Y-115046666D01*
X219241714Y-114951428D01*
X219241714Y-114808571D01*
X219289333Y-114713333D01*
X219336952Y-114665714D01*
X219432190Y-114618095D01*
X219717904Y-114618095D01*
X219813142Y-114665714D01*
X219860761Y-114713333D01*
X219908380Y-114808571D01*
X219908380Y-114951428D01*
X219908380Y-113760952D02*
X218908380Y-113760952D01*
X219860761Y-113760952D02*
X219908380Y-113856190D01*
X219908380Y-114046666D01*
X219860761Y-114141904D01*
X219813142Y-114189523D01*
X219717904Y-114237142D01*
X219432190Y-114237142D01*
X219336952Y-114189523D01*
X219289333Y-114141904D01*
X219241714Y-114046666D01*
X219241714Y-113856190D01*
X219289333Y-113760952D01*
X219241714Y-112856190D02*
X219908380Y-112856190D01*
X219241714Y-113284761D02*
X219765523Y-113284761D01*
X219860761Y-113237142D01*
X219908380Y-113141904D01*
X219908380Y-112999047D01*
X219860761Y-112903809D01*
X219813142Y-112856190D01*
X219908380Y-112237142D02*
X219860761Y-112332380D01*
X219765523Y-112380000D01*
X218908380Y-112380000D01*
X219860761Y-111475238D02*
X219908380Y-111570476D01*
X219908380Y-111760952D01*
X219860761Y-111856190D01*
X219765523Y-111903809D01*
X219384571Y-111903809D01*
X219289333Y-111856190D01*
X219241714Y-111760952D01*
X219241714Y-111570476D01*
X219289333Y-111475238D01*
X219384571Y-111427619D01*
X219479809Y-111427619D01*
X219575047Y-111903809D01*
X219241714Y-110332380D02*
X219908380Y-110094285D01*
X219241714Y-109856190D01*
X219813142Y-109475238D02*
X219860761Y-109427619D01*
X219908380Y-109475238D01*
X219860761Y-109522857D01*
X219813142Y-109475238D01*
X219908380Y-109475238D01*
X219003619Y-109046666D02*
X218956000Y-108999047D01*
X218908380Y-108903809D01*
X218908380Y-108665714D01*
X218956000Y-108570476D01*
X219003619Y-108522857D01*
X219098857Y-108475238D01*
X219194095Y-108475238D01*
X219336952Y-108522857D01*
X219908380Y-109094285D01*
X219908380Y-108475238D01*
D11*
%TO.C,G\u002A\u002A\u002A*%
G36*
X104059566Y-123871566D02*
G01*
X99061853Y-123873690D01*
X98702102Y-123873837D01*
X98358939Y-123873964D01*
X98032017Y-123874070D01*
X97720990Y-123874156D01*
X97425513Y-123874219D01*
X97145239Y-123874261D01*
X96879823Y-123874280D01*
X96628918Y-123874276D01*
X96392178Y-123874247D01*
X96169259Y-123874194D01*
X95959813Y-123874116D01*
X95763494Y-123874013D01*
X95579957Y-123873883D01*
X95408856Y-123873726D01*
X95249845Y-123873542D01*
X95102577Y-123873329D01*
X94966707Y-123873088D01*
X94841889Y-123872818D01*
X94727777Y-123872518D01*
X94624025Y-123872188D01*
X94530286Y-123871827D01*
X94446216Y-123871434D01*
X94371467Y-123871009D01*
X94305694Y-123870551D01*
X94248551Y-123870060D01*
X94199693Y-123869535D01*
X94158772Y-123868976D01*
X94125444Y-123868382D01*
X94099361Y-123867752D01*
X94080179Y-123867085D01*
X94067551Y-123866382D01*
X94061131Y-123865642D01*
X94060122Y-123865223D01*
X94059893Y-123856215D01*
X94059673Y-123830742D01*
X94059465Y-123789271D01*
X94059267Y-123732272D01*
X94059081Y-123660213D01*
X94058905Y-123573561D01*
X94058741Y-123472784D01*
X94058589Y-123358352D01*
X94058448Y-123230732D01*
X94058320Y-123090392D01*
X94058203Y-122937800D01*
X94058099Y-122773426D01*
X94058007Y-122597736D01*
X94057928Y-122411199D01*
X94057862Y-122214284D01*
X94057808Y-122007458D01*
X94057768Y-121791189D01*
X94057741Y-121565947D01*
X94057728Y-121332198D01*
X94057728Y-121090412D01*
X94057742Y-120841055D01*
X94057770Y-120584598D01*
X94057813Y-120321507D01*
X94057869Y-120052251D01*
X94057941Y-119777298D01*
X94058027Y-119497117D01*
X94058127Y-119212175D01*
X94058243Y-118922940D01*
X94058269Y-118863533D01*
X94060387Y-113978266D01*
X94166266Y-113978266D01*
X94166266Y-120472199D01*
X96105133Y-120472199D01*
X96105133Y-118127062D01*
X95059499Y-118122700D01*
X95055131Y-117127866D01*
X97654533Y-117127866D01*
X97654533Y-118126933D01*
X96604607Y-118126933D01*
X96606753Y-119297450D01*
X96608900Y-120467966D01*
X98810233Y-120467966D01*
X98814683Y-119871066D01*
X97662999Y-119871066D01*
X97662999Y-118872000D01*
X100457000Y-118872000D01*
X100457000Y-119871066D01*
X99303299Y-119871066D01*
X99306533Y-120419283D01*
X99309766Y-120967499D01*
X96738016Y-120969630D01*
X94166266Y-120971760D01*
X94166266Y-123765733D01*
X103953733Y-123765733D01*
X103953733Y-120971733D01*
X101515333Y-120971733D01*
X101515333Y-118126933D01*
X100465466Y-118126933D01*
X100465466Y-117127866D01*
X103064868Y-117127866D01*
X103060500Y-118122700D01*
X102014866Y-118127062D01*
X102014866Y-120472199D01*
X103953733Y-120472199D01*
X103953733Y-113978266D01*
X99305428Y-113978266D01*
X99309766Y-115286366D01*
X101187249Y-115288502D01*
X103064733Y-115290637D01*
X103064733Y-116289666D01*
X95055266Y-116289666D01*
X95055266Y-115290637D01*
X96932750Y-115288502D01*
X98810233Y-115286366D01*
X98814571Y-113978266D01*
X94166266Y-113978266D01*
X94060387Y-113978266D01*
X94060433Y-113872433D01*
X104059566Y-113872433D01*
X104059566Y-123871566D01*
G37*
X104059566Y-123871566D02*
X99061853Y-123873690D01*
X98702102Y-123873837D01*
X98358939Y-123873964D01*
X98032017Y-123874070D01*
X97720990Y-123874156D01*
X97425513Y-123874219D01*
X97145239Y-123874261D01*
X96879823Y-123874280D01*
X96628918Y-123874276D01*
X96392178Y-123874247D01*
X96169259Y-123874194D01*
X95959813Y-123874116D01*
X95763494Y-123874013D01*
X95579957Y-123873883D01*
X95408856Y-123873726D01*
X95249845Y-123873542D01*
X95102577Y-123873329D01*
X94966707Y-123873088D01*
X94841889Y-123872818D01*
X94727777Y-123872518D01*
X94624025Y-123872188D01*
X94530286Y-123871827D01*
X94446216Y-123871434D01*
X94371467Y-123871009D01*
X94305694Y-123870551D01*
X94248551Y-123870060D01*
X94199693Y-123869535D01*
X94158772Y-123868976D01*
X94125444Y-123868382D01*
X94099361Y-123867752D01*
X94080179Y-123867085D01*
X94067551Y-123866382D01*
X94061131Y-123865642D01*
X94060122Y-123865223D01*
X94059893Y-123856215D01*
X94059673Y-123830742D01*
X94059465Y-123789271D01*
X94059267Y-123732272D01*
X94059081Y-123660213D01*
X94058905Y-123573561D01*
X94058741Y-123472784D01*
X94058589Y-123358352D01*
X94058448Y-123230732D01*
X94058320Y-123090392D01*
X94058203Y-122937800D01*
X94058099Y-122773426D01*
X94058007Y-122597736D01*
X94057928Y-122411199D01*
X94057862Y-122214284D01*
X94057808Y-122007458D01*
X94057768Y-121791189D01*
X94057741Y-121565947D01*
X94057728Y-121332198D01*
X94057728Y-121090412D01*
X94057742Y-120841055D01*
X94057770Y-120584598D01*
X94057813Y-120321507D01*
X94057869Y-120052251D01*
X94057941Y-119777298D01*
X94058027Y-119497117D01*
X94058127Y-119212175D01*
X94058243Y-118922940D01*
X94058269Y-118863533D01*
X94060387Y-113978266D01*
X94166266Y-113978266D01*
X94166266Y-120472199D01*
X96105133Y-120472199D01*
X96105133Y-118127062D01*
X95059499Y-118122700D01*
X95055131Y-117127866D01*
X97654533Y-117127866D01*
X97654533Y-118126933D01*
X96604607Y-118126933D01*
X96606753Y-119297450D01*
X96608900Y-120467966D01*
X98810233Y-120467966D01*
X98814683Y-119871066D01*
X97662999Y-119871066D01*
X97662999Y-118872000D01*
X100457000Y-118872000D01*
X100457000Y-119871066D01*
X99303299Y-119871066D01*
X99306533Y-120419283D01*
X99309766Y-120967499D01*
X96738016Y-120969630D01*
X94166266Y-120971760D01*
X94166266Y-123765733D01*
X103953733Y-123765733D01*
X103953733Y-120971733D01*
X101515333Y-120971733D01*
X101515333Y-118126933D01*
X100465466Y-118126933D01*
X100465466Y-117127866D01*
X103064868Y-117127866D01*
X103060500Y-118122700D01*
X102014866Y-118127062D01*
X102014866Y-120472199D01*
X103953733Y-120472199D01*
X103953733Y-113978266D01*
X99305428Y-113978266D01*
X99309766Y-115286366D01*
X101187249Y-115288502D01*
X103064733Y-115290637D01*
X103064733Y-116289666D01*
X95055266Y-116289666D01*
X95055266Y-115290637D01*
X96932750Y-115288502D01*
X98810233Y-115286366D01*
X98814571Y-113978266D01*
X94166266Y-113978266D01*
X94060387Y-113978266D01*
X94060433Y-113872433D01*
X104059566Y-113872433D01*
X104059566Y-123871566D01*
G36*
X95829399Y-122557988D02*
G01*
X95859600Y-122594843D01*
X95859599Y-122927533D01*
X95859599Y-123260222D01*
X95829399Y-123297078D01*
X95799199Y-123333933D01*
X95283866Y-123333933D01*
X95283866Y-122656600D01*
X95444733Y-122656600D01*
X95444733Y-123198466D01*
X95707199Y-123198466D01*
X95707199Y-122656600D01*
X95444733Y-122656600D01*
X95283866Y-122656600D01*
X95283866Y-122521133D01*
X95799199Y-122521133D01*
X95829399Y-122557988D01*
G37*
X95829399Y-122557988D02*
X95859600Y-122594843D01*
X95859599Y-122927533D01*
X95859599Y-123260222D01*
X95829399Y-123297078D01*
X95799199Y-123333933D01*
X95283866Y-123333933D01*
X95283866Y-122656600D01*
X95444733Y-122656600D01*
X95444733Y-123198466D01*
X95707199Y-123198466D01*
X95707199Y-122656600D01*
X95444733Y-122656600D01*
X95283866Y-122656600D01*
X95283866Y-122521133D01*
X95799199Y-122521133D01*
X95829399Y-122557988D01*
G36*
X96545400Y-122656600D02*
G01*
X96130533Y-122656600D01*
X96130533Y-122859800D01*
X96545400Y-122859800D01*
X96545400Y-122995266D01*
X96130533Y-122995266D01*
X96130533Y-123198466D01*
X96545400Y-123198466D01*
X96545400Y-123333933D01*
X95978133Y-123333933D01*
X95978133Y-122521133D01*
X96545400Y-122521133D01*
X96545400Y-122656600D01*
G37*
X96545400Y-122656600D02*
X96130533Y-122656600D01*
X96130533Y-122859800D01*
X96545400Y-122859800D01*
X96545400Y-122995266D01*
X96130533Y-122995266D01*
X96130533Y-123198466D01*
X96545400Y-123198466D01*
X96545400Y-123333933D01*
X95978133Y-123333933D01*
X95978133Y-122521133D01*
X96545400Y-122521133D01*
X96545400Y-122656600D01*
G36*
X97147041Y-122925416D02*
G01*
X97057179Y-123329700D01*
X96959039Y-123332075D01*
X96860898Y-123334451D01*
X96829127Y-123200842D01*
X96818950Y-123158129D01*
X96805632Y-123102366D01*
X96789992Y-123036967D01*
X96772844Y-122965345D01*
X96755008Y-122890916D01*
X96737300Y-122817092D01*
X96732309Y-122796300D01*
X96667261Y-122525366D01*
X96743206Y-122522913D01*
X96777715Y-122522664D01*
X96805162Y-122524099D01*
X96821515Y-122526937D01*
X96824155Y-122528556D01*
X96826908Y-122538472D01*
X96832516Y-122563076D01*
X96840572Y-122600440D01*
X96850673Y-122648636D01*
X96862414Y-122705734D01*
X96875390Y-122769806D01*
X96888159Y-122833693D01*
X96901864Y-122902089D01*
X96914686Y-122964931D01*
X96926228Y-123020359D01*
X96936093Y-123066511D01*
X96943883Y-123101527D01*
X96949200Y-123123545D01*
X96951596Y-123130730D01*
X96954416Y-123122782D01*
X96960277Y-123100279D01*
X96968710Y-123065233D01*
X96979246Y-123019654D01*
X96991415Y-122965553D01*
X97004747Y-122904941D01*
X97010403Y-122878847D01*
X97024639Y-122812978D01*
X97038296Y-122749932D01*
X97050807Y-122692319D01*
X97061604Y-122642751D01*
X97070118Y-122603839D01*
X97075781Y-122578196D01*
X97076711Y-122574050D01*
X97088648Y-122521133D01*
X97236903Y-122521133D01*
X97147041Y-122925416D01*
G37*
X97147041Y-122925416D02*
X97057179Y-123329700D01*
X96959039Y-123332075D01*
X96860898Y-123334451D01*
X96829127Y-123200842D01*
X96818950Y-123158129D01*
X96805632Y-123102366D01*
X96789992Y-123036967D01*
X96772844Y-122965345D01*
X96755008Y-122890916D01*
X96737300Y-122817092D01*
X96732309Y-122796300D01*
X96667261Y-122525366D01*
X96743206Y-122522913D01*
X96777715Y-122522664D01*
X96805162Y-122524099D01*
X96821515Y-122526937D01*
X96824155Y-122528556D01*
X96826908Y-122538472D01*
X96832516Y-122563076D01*
X96840572Y-122600440D01*
X96850673Y-122648636D01*
X96862414Y-122705734D01*
X96875390Y-122769806D01*
X96888159Y-122833693D01*
X96901864Y-122902089D01*
X96914686Y-122964931D01*
X96926228Y-123020359D01*
X96936093Y-123066511D01*
X96943883Y-123101527D01*
X96949200Y-123123545D01*
X96951596Y-123130730D01*
X96954416Y-123122782D01*
X96960277Y-123100279D01*
X96968710Y-123065233D01*
X96979246Y-123019654D01*
X96991415Y-122965553D01*
X97004747Y-122904941D01*
X97010403Y-122878847D01*
X97024639Y-122812978D01*
X97038296Y-122749932D01*
X97050807Y-122692319D01*
X97061604Y-122642751D01*
X97070118Y-122603839D01*
X97075781Y-122578196D01*
X97076711Y-122574050D01*
X97088648Y-122521133D01*
X97236903Y-122521133D01*
X97147041Y-122925416D01*
G36*
X97925466Y-122656600D02*
G01*
X97519066Y-122656600D01*
X97519066Y-122859800D01*
X97925466Y-122859800D01*
X97925466Y-122995266D01*
X97519066Y-122995266D01*
X97519066Y-123198466D01*
X97925466Y-123198466D01*
X97925466Y-123333933D01*
X97358199Y-123333933D01*
X97358199Y-122521133D01*
X97925466Y-122521133D01*
X97925466Y-122656600D01*
G37*
X97925466Y-122656600D02*
X97519066Y-122656600D01*
X97519066Y-122859800D01*
X97925466Y-122859800D01*
X97925466Y-122995266D01*
X97519066Y-122995266D01*
X97519066Y-123198466D01*
X97925466Y-123198466D01*
X97925466Y-123333933D01*
X97358199Y-123333933D01*
X97358199Y-122521133D01*
X97925466Y-122521133D01*
X97925466Y-122656600D01*
G36*
X98204866Y-123198466D02*
G01*
X98619733Y-123198466D01*
X98619733Y-123333933D01*
X98043999Y-123333933D01*
X98043999Y-122521133D01*
X98204866Y-122521133D01*
X98204866Y-123198466D01*
G37*
X98204866Y-123198466D02*
X98619733Y-123198466D01*
X98619733Y-123333933D01*
X98043999Y-123333933D01*
X98043999Y-122521133D01*
X98204866Y-122521133D01*
X98204866Y-123198466D01*
G36*
X99314000Y-123333933D02*
G01*
X98738266Y-123333933D01*
X98738266Y-122656600D01*
X98899133Y-122656600D01*
X98899133Y-123198466D01*
X99161600Y-123198466D01*
X99161600Y-122656600D01*
X98899133Y-122656600D01*
X98738266Y-122656600D01*
X98738266Y-122521133D01*
X99314000Y-122521133D01*
X99314000Y-123333933D01*
G37*
X99314000Y-123333933D02*
X98738266Y-123333933D01*
X98738266Y-122656600D01*
X98899133Y-122656600D01*
X98899133Y-123198466D01*
X99161600Y-123198466D01*
X99161600Y-122656600D01*
X98899133Y-122656600D01*
X98738266Y-122656600D01*
X98738266Y-122521133D01*
X99314000Y-122521133D01*
X99314000Y-123333933D01*
G36*
X99999800Y-122995266D02*
G01*
X99584933Y-122995266D01*
X99584933Y-123333933D01*
X99432533Y-123333933D01*
X99432533Y-122656600D01*
X99584933Y-122656600D01*
X99584933Y-122859800D01*
X99855866Y-122859800D01*
X99855866Y-122656600D01*
X99584933Y-122656600D01*
X99432533Y-122656600D01*
X99432533Y-122521133D01*
X99999800Y-122521133D01*
X99999800Y-122995266D01*
G37*
X99999800Y-122995266D02*
X99584933Y-122995266D01*
X99584933Y-123333933D01*
X99432533Y-123333933D01*
X99432533Y-122656600D01*
X99584933Y-122656600D01*
X99584933Y-122859800D01*
X99855866Y-122859800D01*
X99855866Y-122656600D01*
X99584933Y-122656600D01*
X99432533Y-122656600D01*
X99432533Y-122521133D01*
X99999800Y-122521133D01*
X99999800Y-122995266D01*
G36*
X100282947Y-122525366D02*
G01*
X100327651Y-122648133D01*
X100347053Y-122701395D01*
X100368092Y-122759116D01*
X100388405Y-122814818D01*
X100405630Y-122862023D01*
X100407727Y-122867766D01*
X100443099Y-122964633D01*
X100457248Y-122931266D01*
X100464233Y-122913863D01*
X100476082Y-122883314D01*
X100491753Y-122842347D01*
X100510208Y-122793686D01*
X100530405Y-122740059D01*
X100541849Y-122709516D01*
X100612302Y-122521133D01*
X100761799Y-122521133D01*
X100761799Y-123333933D01*
X100617866Y-123333933D01*
X100617866Y-123167139D01*
X100617512Y-123113956D01*
X100616514Y-123069440D01*
X100614965Y-123035627D01*
X100612963Y-123014555D01*
X100610601Y-123008260D01*
X100610457Y-123008389D01*
X100605616Y-123018598D01*
X100596484Y-123042318D01*
X100583994Y-123076955D01*
X100569079Y-123119913D01*
X100552671Y-123168597D01*
X100550486Y-123175183D01*
X100497926Y-123333933D01*
X100401490Y-123333933D01*
X100342462Y-123166716D01*
X100283433Y-122999500D01*
X100281137Y-123166716D01*
X100278842Y-123333933D01*
X100118333Y-123333933D01*
X100118333Y-122520520D01*
X100282947Y-122525366D01*
G37*
X100282947Y-122525366D02*
X100327651Y-122648133D01*
X100347053Y-122701395D01*
X100368092Y-122759116D01*
X100388405Y-122814818D01*
X100405630Y-122862023D01*
X100407727Y-122867766D01*
X100443099Y-122964633D01*
X100457248Y-122931266D01*
X100464233Y-122913863D01*
X100476082Y-122883314D01*
X100491753Y-122842347D01*
X100510208Y-122793686D01*
X100530405Y-122740059D01*
X100541849Y-122709516D01*
X100612302Y-122521133D01*
X100761799Y-122521133D01*
X100761799Y-123333933D01*
X100617866Y-123333933D01*
X100617866Y-123167139D01*
X100617512Y-123113956D01*
X100616514Y-123069440D01*
X100614965Y-123035627D01*
X100612963Y-123014555D01*
X100610601Y-123008260D01*
X100610457Y-123008389D01*
X100605616Y-123018598D01*
X100596484Y-123042318D01*
X100583994Y-123076955D01*
X100569079Y-123119913D01*
X100552671Y-123168597D01*
X100550486Y-123175183D01*
X100497926Y-123333933D01*
X100401490Y-123333933D01*
X100342462Y-123166716D01*
X100283433Y-122999500D01*
X100281137Y-123166716D01*
X100278842Y-123333933D01*
X100118333Y-123333933D01*
X100118333Y-122520520D01*
X100282947Y-122525366D01*
G36*
X101456066Y-122656600D02*
G01*
X101041199Y-122656600D01*
X101041199Y-122859800D01*
X101456066Y-122859800D01*
X101456066Y-122995266D01*
X101041199Y-122995266D01*
X101041199Y-123198466D01*
X101456066Y-123198466D01*
X101456066Y-123333933D01*
X100880333Y-123333933D01*
X100880333Y-122521133D01*
X101456066Y-122521133D01*
X101456066Y-122656600D01*
G37*
X101456066Y-122656600D02*
X101041199Y-122656600D01*
X101041199Y-122859800D01*
X101456066Y-122859800D01*
X101456066Y-122995266D01*
X101041199Y-122995266D01*
X101041199Y-123198466D01*
X101456066Y-123198466D01*
X101456066Y-123333933D01*
X100880333Y-123333933D01*
X100880333Y-122521133D01*
X101456066Y-122521133D01*
X101456066Y-122656600D01*
G36*
X101863959Y-122747616D02*
G01*
X101993699Y-122974100D01*
X101995954Y-122747616D01*
X101998209Y-122521133D01*
X102141866Y-122521133D01*
X102141866Y-123333933D01*
X102067783Y-123333775D01*
X101993699Y-123333617D01*
X101866699Y-123103058D01*
X101739699Y-122872500D01*
X101737447Y-123103216D01*
X101735194Y-123333933D01*
X101574599Y-123333933D01*
X101574599Y-122521133D01*
X101734219Y-122521133D01*
X101863959Y-122747616D01*
G37*
X101863959Y-122747616D02*
X101993699Y-122974100D01*
X101995954Y-122747616D01*
X101998209Y-122521133D01*
X102141866Y-122521133D01*
X102141866Y-123333933D01*
X102067783Y-123333775D01*
X101993699Y-123333617D01*
X101866699Y-123103058D01*
X101739699Y-122872500D01*
X101737447Y-123103216D01*
X101735194Y-123333933D01*
X101574599Y-123333933D01*
X101574599Y-122521133D01*
X101734219Y-122521133D01*
X101863959Y-122747616D01*
G36*
X102836133Y-122656600D02*
G01*
X102641400Y-122656600D01*
X102641400Y-123333933D01*
X102480533Y-123333933D01*
X102480533Y-122656600D01*
X102260399Y-122656600D01*
X102260399Y-122521133D01*
X102836133Y-122521133D01*
X102836133Y-122656600D01*
G37*
X102836133Y-122656600D02*
X102641400Y-122656600D01*
X102641400Y-123333933D01*
X102480533Y-123333933D01*
X102480533Y-122656600D01*
X102260399Y-122656600D01*
X102260399Y-122521133D01*
X102836133Y-122521133D01*
X102836133Y-122656600D01*
G36*
X94443061Y-121506943D02*
G01*
X94525123Y-121509366D01*
X94603621Y-121725266D01*
X94624433Y-121782500D01*
X94643380Y-121834591D01*
X94659682Y-121879396D01*
X94672561Y-121914774D01*
X94681236Y-121938583D01*
X94684928Y-121948680D01*
X94684952Y-121948746D01*
X94688503Y-121943132D01*
X94697141Y-121923536D01*
X94710105Y-121891866D01*
X94726630Y-121850030D01*
X94745955Y-121799937D01*
X94767316Y-121743495D01*
X94772043Y-121730871D01*
X94856300Y-121505417D01*
X95004466Y-121505133D01*
X95004466Y-122326400D01*
X94860883Y-122326400D01*
X94858591Y-122154949D01*
X94856300Y-121983499D01*
X94797094Y-122155311D01*
X94737889Y-122327122D01*
X94691524Y-122324644D01*
X94645160Y-122322166D01*
X94585630Y-122152833D01*
X94526099Y-121983499D01*
X94523808Y-122154949D01*
X94521516Y-122326400D01*
X94446902Y-122326400D01*
X94412872Y-122325798D01*
X94385578Y-122324189D01*
X94369232Y-122321870D01*
X94366644Y-122320755D01*
X94365514Y-122311406D01*
X94364459Y-122286793D01*
X94363503Y-122248584D01*
X94362668Y-122198449D01*
X94361977Y-122138056D01*
X94361453Y-122069074D01*
X94361120Y-121993172D01*
X94361000Y-121912019D01*
X94361000Y-121504520D01*
X94443061Y-121506943D01*
G37*
X94443061Y-121506943D02*
X94525123Y-121509366D01*
X94603621Y-121725266D01*
X94624433Y-121782500D01*
X94643380Y-121834591D01*
X94659682Y-121879396D01*
X94672561Y-121914774D01*
X94681236Y-121938583D01*
X94684928Y-121948680D01*
X94684952Y-121948746D01*
X94688503Y-121943132D01*
X94697141Y-121923536D01*
X94710105Y-121891866D01*
X94726630Y-121850030D01*
X94745955Y-121799937D01*
X94767316Y-121743495D01*
X94772043Y-121730871D01*
X94856300Y-121505417D01*
X95004466Y-121505133D01*
X95004466Y-122326400D01*
X94860883Y-122326400D01*
X94858591Y-122154949D01*
X94856300Y-121983499D01*
X94797094Y-122155311D01*
X94737889Y-122327122D01*
X94691524Y-122324644D01*
X94645160Y-122322166D01*
X94585630Y-122152833D01*
X94526099Y-121983499D01*
X94523808Y-122154949D01*
X94521516Y-122326400D01*
X94446902Y-122326400D01*
X94412872Y-122325798D01*
X94385578Y-122324189D01*
X94369232Y-122321870D01*
X94366644Y-122320755D01*
X94365514Y-122311406D01*
X94364459Y-122286793D01*
X94363503Y-122248584D01*
X94362668Y-122198449D01*
X94361977Y-122138056D01*
X94361453Y-122069074D01*
X94361120Y-121993172D01*
X94361000Y-121912019D01*
X94361000Y-121504520D01*
X94443061Y-121506943D01*
G36*
X95698733Y-122326400D02*
G01*
X95546333Y-122326400D01*
X95546333Y-121979266D01*
X95283866Y-121979266D01*
X95283866Y-122326400D01*
X95123000Y-122326400D01*
X95123000Y-121852266D01*
X95283345Y-121852266D01*
X95546333Y-121852266D01*
X95546333Y-121640158D01*
X95417216Y-121642496D01*
X95288100Y-121644833D01*
X95285722Y-121748549D01*
X95283345Y-121852266D01*
X95123000Y-121852266D01*
X95123000Y-121505133D01*
X95698733Y-121505133D01*
X95698733Y-122326400D01*
G37*
X95698733Y-122326400D02*
X95546333Y-122326400D01*
X95546333Y-121979266D01*
X95283866Y-121979266D01*
X95283866Y-122326400D01*
X95123000Y-122326400D01*
X95123000Y-121852266D01*
X95283345Y-121852266D01*
X95546333Y-121852266D01*
X95546333Y-121640158D01*
X95417216Y-121642496D01*
X95288100Y-121644833D01*
X95285722Y-121748549D01*
X95283345Y-121852266D01*
X95123000Y-121852266D01*
X95123000Y-121505133D01*
X95698733Y-121505133D01*
X95698733Y-122326400D01*
G36*
X96393000Y-121640599D02*
G01*
X95978133Y-121640599D01*
X95978133Y-122182466D01*
X96240600Y-122182466D01*
X96240600Y-121979266D01*
X96071266Y-121979266D01*
X96071266Y-121852266D01*
X96393267Y-121852266D01*
X96391017Y-122087216D01*
X96388766Y-122322166D01*
X96103016Y-122324395D01*
X95817266Y-122326625D01*
X95817266Y-121505133D01*
X96393000Y-121505133D01*
X96393000Y-121640599D01*
G37*
X96393000Y-121640599D02*
X95978133Y-121640599D01*
X95978133Y-122182466D01*
X96240600Y-122182466D01*
X96240600Y-121979266D01*
X96071266Y-121979266D01*
X96071266Y-121852266D01*
X96393267Y-121852266D01*
X96391017Y-122087216D01*
X96388766Y-122322166D01*
X96103016Y-122324395D01*
X95817266Y-122326625D01*
X95817266Y-121505133D01*
X96393000Y-121505133D01*
X96393000Y-121640599D01*
G36*
X96663933Y-122326400D02*
G01*
X96511533Y-122326400D01*
X96511533Y-121505133D01*
X96663933Y-121505133D01*
X96663933Y-122326400D01*
G37*
X96663933Y-122326400D02*
X96511533Y-122326400D01*
X96511533Y-121505133D01*
X96663933Y-121505133D01*
X96663933Y-122326400D01*
G36*
X97950866Y-121640599D02*
G01*
X97535999Y-121640599D01*
X97535999Y-121852266D01*
X97950866Y-121852266D01*
X97950866Y-121979266D01*
X97535999Y-121979266D01*
X97535999Y-122182466D01*
X97950866Y-122182466D01*
X97950866Y-122326400D01*
X97375133Y-122326400D01*
X97375133Y-121505133D01*
X97950866Y-121505133D01*
X97950866Y-121640599D01*
G37*
X97950866Y-121640599D02*
X97535999Y-121640599D01*
X97535999Y-121852266D01*
X97950866Y-121852266D01*
X97950866Y-121979266D01*
X97535999Y-121979266D01*
X97535999Y-122182466D01*
X97950866Y-122182466D01*
X97950866Y-122326400D01*
X97375133Y-122326400D01*
X97375133Y-121505133D01*
X97950866Y-121505133D01*
X97950866Y-121640599D01*
G36*
X98230266Y-122182466D02*
G01*
X98636666Y-122182466D01*
X98636666Y-122326400D01*
X98069399Y-122326400D01*
X98069399Y-121505133D01*
X98230266Y-121505133D01*
X98230266Y-122182466D01*
G37*
X98230266Y-122182466D02*
X98636666Y-122182466D01*
X98636666Y-122326400D01*
X98069399Y-122326400D01*
X98069399Y-121505133D01*
X98230266Y-121505133D01*
X98230266Y-122182466D01*
G36*
X99330933Y-121640298D02*
G01*
X99125616Y-121642566D01*
X98920300Y-121644833D01*
X98920300Y-121848033D01*
X99125616Y-121850300D01*
X99330933Y-121852567D01*
X99330933Y-121979266D01*
X98916066Y-121979266D01*
X98916066Y-122182466D01*
X99330933Y-122182466D01*
X99330933Y-122326400D01*
X99048711Y-122326400D01*
X98981194Y-122326236D01*
X98919134Y-122325772D01*
X98864545Y-122325047D01*
X98819443Y-122324100D01*
X98785845Y-122322971D01*
X98765766Y-122321699D01*
X98760844Y-122320755D01*
X98759713Y-122311406D01*
X98758658Y-122286793D01*
X98757702Y-122248586D01*
X98756867Y-122198454D01*
X98756176Y-122138067D01*
X98755652Y-122069095D01*
X98755319Y-121993207D01*
X98755200Y-121912072D01*
X98755200Y-121505133D01*
X99330933Y-121505133D01*
X99330933Y-121640298D01*
G37*
X99330933Y-121640298D02*
X99125616Y-121642566D01*
X98920300Y-121644833D01*
X98920300Y-121848033D01*
X99125616Y-121850300D01*
X99330933Y-121852567D01*
X99330933Y-121979266D01*
X98916066Y-121979266D01*
X98916066Y-122182466D01*
X99330933Y-122182466D01*
X99330933Y-122326400D01*
X99048711Y-122326400D01*
X98981194Y-122326236D01*
X98919134Y-122325772D01*
X98864545Y-122325047D01*
X98819443Y-122324100D01*
X98785845Y-122322971D01*
X98765766Y-122321699D01*
X98760844Y-122320755D01*
X98759713Y-122311406D01*
X98758658Y-122286793D01*
X98757702Y-122248586D01*
X98756867Y-122198454D01*
X98756176Y-122138067D01*
X98755652Y-122069095D01*
X98755319Y-121993207D01*
X98755200Y-121912072D01*
X98755200Y-121505133D01*
X99330933Y-121505133D01*
X99330933Y-121640298D01*
G36*
X100025200Y-121640599D02*
G01*
X99610333Y-121640599D01*
X99610333Y-122182466D01*
X100025200Y-122182466D01*
X100025200Y-122326400D01*
X99449466Y-122326400D01*
X99449466Y-121505133D01*
X100025200Y-121505133D01*
X100025200Y-121640599D01*
G37*
X100025200Y-121640599D02*
X99610333Y-121640599D01*
X99610333Y-122182466D01*
X100025200Y-122182466D01*
X100025200Y-122326400D01*
X99449466Y-122326400D01*
X99449466Y-121505133D01*
X100025200Y-121505133D01*
X100025200Y-121640599D01*
G36*
X100710999Y-121640045D02*
G01*
X100615749Y-121642439D01*
X100520500Y-121644833D01*
X100518287Y-121985616D01*
X100516074Y-122326400D01*
X100441381Y-122326400D01*
X100407333Y-122325798D01*
X100380019Y-122324191D01*
X100363649Y-122321875D01*
X100361044Y-122320755D01*
X100359808Y-122311322D01*
X100358666Y-122286792D01*
X100357647Y-122249002D01*
X100356782Y-122199787D01*
X100356102Y-122140984D01*
X100355636Y-122074429D01*
X100355414Y-122001959D01*
X100355400Y-121977855D01*
X100355400Y-121640599D01*
X100143733Y-121640599D01*
X100143733Y-121505133D01*
X100710999Y-121505133D01*
X100710999Y-121640045D01*
G37*
X100710999Y-121640045D02*
X100615749Y-121642439D01*
X100520500Y-121644833D01*
X100518287Y-121985616D01*
X100516074Y-122326400D01*
X100441381Y-122326400D01*
X100407333Y-122325798D01*
X100380019Y-122324191D01*
X100363649Y-122321875D01*
X100361044Y-122320755D01*
X100359808Y-122311322D01*
X100358666Y-122286792D01*
X100357647Y-122249002D01*
X100356782Y-122199787D01*
X100356102Y-122140984D01*
X100355636Y-122074429D01*
X100355414Y-122001959D01*
X100355400Y-121977855D01*
X100355400Y-121640599D01*
X100143733Y-121640599D01*
X100143733Y-121505133D01*
X100710999Y-121505133D01*
X100710999Y-121640045D01*
G36*
X101405266Y-121979266D02*
G01*
X101307899Y-121979266D01*
X101269565Y-121979542D01*
X101238336Y-121980293D01*
X101217554Y-121981402D01*
X101210533Y-121982667D01*
X101214509Y-121990565D01*
X101225456Y-122010551D01*
X101241903Y-122040035D01*
X101262380Y-122076425D01*
X101285417Y-122117130D01*
X101309542Y-122159560D01*
X101333285Y-122201124D01*
X101355176Y-122239230D01*
X101373743Y-122271289D01*
X101387516Y-122294708D01*
X101390022Y-122298883D01*
X101406647Y-122326400D01*
X101257035Y-122326400D01*
X101152908Y-122152833D01*
X101120136Y-122098304D01*
X101094742Y-122056590D01*
X101075407Y-122025973D01*
X101060814Y-122004738D01*
X101049643Y-121991169D01*
X101040577Y-121983549D01*
X101032298Y-121980162D01*
X101023488Y-121979293D01*
X101019590Y-121979266D01*
X100990399Y-121979266D01*
X100990399Y-122326400D01*
X100829533Y-122326400D01*
X100829533Y-121852266D01*
X100989878Y-121852266D01*
X101252866Y-121852266D01*
X101252866Y-121640158D01*
X101123749Y-121642496D01*
X100994633Y-121644833D01*
X100992256Y-121748549D01*
X100989878Y-121852266D01*
X100829533Y-121852266D01*
X100829533Y-121505133D01*
X101405266Y-121505133D01*
X101405266Y-121979266D01*
G37*
X101405266Y-121979266D02*
X101307899Y-121979266D01*
X101269565Y-121979542D01*
X101238336Y-121980293D01*
X101217554Y-121981402D01*
X101210533Y-121982667D01*
X101214509Y-121990565D01*
X101225456Y-122010551D01*
X101241903Y-122040035D01*
X101262380Y-122076425D01*
X101285417Y-122117130D01*
X101309542Y-122159560D01*
X101333285Y-122201124D01*
X101355176Y-122239230D01*
X101373743Y-122271289D01*
X101387516Y-122294708D01*
X101390022Y-122298883D01*
X101406647Y-122326400D01*
X101257035Y-122326400D01*
X101152908Y-122152833D01*
X101120136Y-122098304D01*
X101094742Y-122056590D01*
X101075407Y-122025973D01*
X101060814Y-122004738D01*
X101049643Y-121991169D01*
X101040577Y-121983549D01*
X101032298Y-121980162D01*
X101023488Y-121979293D01*
X101019590Y-121979266D01*
X100990399Y-121979266D01*
X100990399Y-122326400D01*
X100829533Y-122326400D01*
X100829533Y-121852266D01*
X100989878Y-121852266D01*
X101252866Y-121852266D01*
X101252866Y-121640158D01*
X101123749Y-121642496D01*
X100994633Y-121644833D01*
X100992256Y-121748549D01*
X100989878Y-121852266D01*
X100829533Y-121852266D01*
X100829533Y-121505133D01*
X101405266Y-121505133D01*
X101405266Y-121979266D01*
G36*
X102097497Y-121913649D02*
G01*
X102095299Y-122322166D01*
X101809549Y-122324395D01*
X101523799Y-122326625D01*
X101523799Y-121640599D01*
X101684666Y-121640599D01*
X101684666Y-122182466D01*
X101947133Y-122182466D01*
X101947133Y-121640599D01*
X101684666Y-121640599D01*
X101523799Y-121640599D01*
X101523799Y-121505133D01*
X102099695Y-121505133D01*
X102097497Y-121913649D01*
G37*
X102097497Y-121913649D02*
X102095299Y-122322166D01*
X101809549Y-122324395D01*
X101523799Y-122326625D01*
X101523799Y-121640599D01*
X101684666Y-121640599D01*
X101684666Y-122182466D01*
X101947133Y-122182466D01*
X101947133Y-121640599D01*
X101684666Y-121640599D01*
X101523799Y-121640599D01*
X101523799Y-121505133D01*
X102099695Y-121505133D01*
X102097497Y-121913649D01*
G36*
X102785333Y-122327059D02*
G01*
X102711250Y-122324612D01*
X102637166Y-122322166D01*
X102512865Y-122098805D01*
X102481370Y-122042443D01*
X102452213Y-121990704D01*
X102426487Y-121945496D01*
X102405286Y-121908724D01*
X102389703Y-121882294D01*
X102380832Y-121868112D01*
X102379515Y-121866395D01*
X102376607Y-121869340D01*
X102374303Y-121885160D01*
X102372569Y-121914667D01*
X102371373Y-121958676D01*
X102370683Y-122018000D01*
X102370466Y-122091873D01*
X102370466Y-122326400D01*
X102218066Y-122326400D01*
X102218066Y-121505133D01*
X102296383Y-121505201D01*
X102374699Y-121505269D01*
X102505933Y-121735662D01*
X102637166Y-121966056D01*
X102639419Y-121735594D01*
X102641672Y-121505133D01*
X102785333Y-121505133D01*
X102785333Y-122327059D01*
G37*
X102785333Y-122327059D02*
X102711250Y-122324612D01*
X102637166Y-122322166D01*
X102512865Y-122098805D01*
X102481370Y-122042443D01*
X102452213Y-121990704D01*
X102426487Y-121945496D01*
X102405286Y-121908724D01*
X102389703Y-121882294D01*
X102380832Y-121868112D01*
X102379515Y-121866395D01*
X102376607Y-121869340D01*
X102374303Y-121885160D01*
X102372569Y-121914667D01*
X102371373Y-121958676D01*
X102370683Y-122018000D01*
X102370466Y-122091873D01*
X102370466Y-122326400D01*
X102218066Y-122326400D01*
X102218066Y-121505133D01*
X102296383Y-121505201D01*
X102374699Y-121505269D01*
X102505933Y-121735662D01*
X102637166Y-121966056D01*
X102639419Y-121735594D01*
X102641672Y-121505133D01*
X102785333Y-121505133D01*
X102785333Y-122327059D01*
G36*
X103064733Y-122326400D02*
G01*
X102903866Y-122326400D01*
X102903866Y-121505133D01*
X103064733Y-121505133D01*
X103064733Y-122326400D01*
G37*
X103064733Y-122326400D02*
X102903866Y-122326400D01*
X102903866Y-121505133D01*
X103064733Y-121505133D01*
X103064733Y-122326400D01*
G36*
X103759000Y-121640599D02*
G01*
X103344133Y-121640599D01*
X103344133Y-122182165D01*
X103549450Y-122184432D01*
X103754766Y-122186699D01*
X103754766Y-122322166D01*
X103469016Y-122324395D01*
X103183266Y-122326625D01*
X103183266Y-121505133D01*
X103759000Y-121505133D01*
X103759000Y-121640599D01*
G37*
X103759000Y-121640599D02*
X103344133Y-121640599D01*
X103344133Y-122182165D01*
X103549450Y-122184432D01*
X103754766Y-122186699D01*
X103754766Y-122322166D01*
X103469016Y-122324395D01*
X103183266Y-122326625D01*
X103183266Y-121505133D01*
X103759000Y-121505133D01*
X103759000Y-121640599D01*
D12*
%TO.C,U3*%
X140700000Y-70044000D02*
G75*
G02*
X138700000Y-70044000I-1000000J0D01*
G01*
X138700000Y-70044000D02*
X137450000Y-70044000D01*
X137450000Y-70044000D02*
X137450000Y-80324000D01*
X137450000Y-80324000D02*
X141950000Y-80324000D01*
X141950000Y-80324000D02*
X141950000Y-70044000D01*
X141950000Y-70044000D02*
X140700000Y-70044000D01*
X134450000Y-69984000D02*
X134450000Y-80384000D01*
X134450000Y-80384000D02*
X144950000Y-80384000D01*
X144950000Y-80384000D02*
X144950000Y-69984000D01*
X144950000Y-69984000D02*
X134450000Y-69984000D01*
%TO.C,R1*%
X147372000Y-75200252D02*
X147372000Y-74677748D01*
X148792000Y-75200252D02*
X148792000Y-74677748D01*
%TO.C,Q1*%
X186476000Y-118244000D02*
X176236000Y-118244000D01*
X186476000Y-134134000D02*
X176236000Y-134134000D01*
X186476000Y-134134000D02*
X186476000Y-118244000D01*
X176236000Y-134134000D02*
X176236000Y-118244000D01*
X183896000Y-118244000D02*
X183896000Y-115704000D01*
X181356000Y-118244000D02*
X181356000Y-115704000D01*
X178816000Y-118244000D02*
X178816000Y-115704000D01*
%TO.C,D2*%
X197398000Y-118244000D02*
X187158000Y-118244000D01*
X197398000Y-134134000D02*
X187158000Y-134134000D01*
X197398000Y-134134000D02*
X197398000Y-118244000D01*
X187158000Y-134134000D02*
X187158000Y-118244000D01*
X194818000Y-118244000D02*
X194818000Y-115704000D01*
X189738000Y-118244000D02*
X189738000Y-115719000D01*
%TO.C,C2*%
X110506252Y-123750000D02*
X109983748Y-123750000D01*
X110506252Y-125170000D02*
X109983748Y-125170000D01*
%TO.C,C3*%
X132155000Y-92693748D02*
X132155000Y-93216252D01*
X130735000Y-92693748D02*
X130735000Y-93216252D01*
%TO.C,C4*%
X159920000Y-110440000D02*
X159920000Y-103000000D01*
X162660000Y-110440000D02*
X162660000Y-103000000D01*
X159920000Y-110440000D02*
X162660000Y-110440000D01*
X159920000Y-103000000D02*
X162660000Y-103000000D01*
%TO.C,C5*%
X211805225Y-76380000D02*
X211805225Y-76880000D01*
X211555225Y-76630000D02*
X212055225Y-76630000D01*
X216961000Y-77821000D02*
X216961000Y-78389000D01*
X216921000Y-77587000D02*
X216921000Y-78623000D01*
X216881000Y-77428000D02*
X216881000Y-78782000D01*
X216841000Y-77300000D02*
X216841000Y-78910000D01*
X216801000Y-77190000D02*
X216801000Y-79020000D01*
X216761000Y-77094000D02*
X216761000Y-79116000D01*
X216721000Y-77007000D02*
X216721000Y-79203000D01*
X216681000Y-76927000D02*
X216681000Y-79283000D01*
X216641000Y-76854000D02*
X216641000Y-79356000D01*
X216601000Y-76786000D02*
X216601000Y-79424000D01*
X216561000Y-76722000D02*
X216561000Y-79488000D01*
X216521000Y-76662000D02*
X216521000Y-79548000D01*
X216481000Y-76605000D02*
X216481000Y-79605000D01*
X216441000Y-76551000D02*
X216441000Y-79659000D01*
X216401000Y-76500000D02*
X216401000Y-79710000D01*
X216361000Y-79145000D02*
X216361000Y-79758000D01*
X216361000Y-76452000D02*
X216361000Y-77065000D01*
X216321000Y-79145000D02*
X216321000Y-79804000D01*
X216321000Y-76406000D02*
X216321000Y-77065000D01*
X216281000Y-79145000D02*
X216281000Y-79848000D01*
X216281000Y-76362000D02*
X216281000Y-77065000D01*
X216241000Y-79145000D02*
X216241000Y-79890000D01*
X216241000Y-76320000D02*
X216241000Y-77065000D01*
X216201000Y-79145000D02*
X216201000Y-79931000D01*
X216201000Y-76279000D02*
X216201000Y-77065000D01*
X216161000Y-79145000D02*
X216161000Y-79969000D01*
X216161000Y-76241000D02*
X216161000Y-77065000D01*
X216121000Y-79145000D02*
X216121000Y-80006000D01*
X216121000Y-76204000D02*
X216121000Y-77065000D01*
X216081000Y-79145000D02*
X216081000Y-80042000D01*
X216081000Y-76168000D02*
X216081000Y-77065000D01*
X216041000Y-79145000D02*
X216041000Y-80076000D01*
X216041000Y-76134000D02*
X216041000Y-77065000D01*
X216001000Y-79145000D02*
X216001000Y-80109000D01*
X216001000Y-76101000D02*
X216001000Y-77065000D01*
X215961000Y-79145000D02*
X215961000Y-80140000D01*
X215961000Y-76070000D02*
X215961000Y-77065000D01*
X215921000Y-79145000D02*
X215921000Y-80170000D01*
X215921000Y-76040000D02*
X215921000Y-77065000D01*
X215881000Y-79145000D02*
X215881000Y-80200000D01*
X215881000Y-76010000D02*
X215881000Y-77065000D01*
X215841000Y-79145000D02*
X215841000Y-80227000D01*
X215841000Y-75983000D02*
X215841000Y-77065000D01*
X215801000Y-79145000D02*
X215801000Y-80254000D01*
X215801000Y-75956000D02*
X215801000Y-77065000D01*
X215761000Y-79145000D02*
X215761000Y-80280000D01*
X215761000Y-75930000D02*
X215761000Y-77065000D01*
X215721000Y-79145000D02*
X215721000Y-80305000D01*
X215721000Y-75905000D02*
X215721000Y-77065000D01*
X215681000Y-79145000D02*
X215681000Y-80329000D01*
X215681000Y-75881000D02*
X215681000Y-77065000D01*
X215641000Y-79145000D02*
X215641000Y-80352000D01*
X215641000Y-75858000D02*
X215641000Y-77065000D01*
X215601000Y-79145000D02*
X215601000Y-80373000D01*
X215601000Y-75837000D02*
X215601000Y-77065000D01*
X215561000Y-79145000D02*
X215561000Y-80395000D01*
X215561000Y-75815000D02*
X215561000Y-77065000D01*
X215521000Y-79145000D02*
X215521000Y-80415000D01*
X215521000Y-75795000D02*
X215521000Y-77065000D01*
X215481000Y-79145000D02*
X215481000Y-80434000D01*
X215481000Y-75776000D02*
X215481000Y-77065000D01*
X215441000Y-79145000D02*
X215441000Y-80453000D01*
X215441000Y-75757000D02*
X215441000Y-77065000D01*
X215401000Y-79145000D02*
X215401000Y-80470000D01*
X215401000Y-75740000D02*
X215401000Y-77065000D01*
X215361000Y-79145000D02*
X215361000Y-80487000D01*
X215361000Y-75723000D02*
X215361000Y-77065000D01*
X215321000Y-79145000D02*
X215321000Y-80503000D01*
X215321000Y-75707000D02*
X215321000Y-77065000D01*
X215281000Y-79145000D02*
X215281000Y-80519000D01*
X215281000Y-75691000D02*
X215281000Y-77065000D01*
X215241000Y-79145000D02*
X215241000Y-80533000D01*
X215241000Y-75677000D02*
X215241000Y-77065000D01*
X215201000Y-79145000D02*
X215201000Y-80547000D01*
X215201000Y-75663000D02*
X215201000Y-77065000D01*
X215161000Y-79145000D02*
X215161000Y-80560000D01*
X215161000Y-75650000D02*
X215161000Y-77065000D01*
X215121000Y-79145000D02*
X215121000Y-80573000D01*
X215121000Y-75637000D02*
X215121000Y-77065000D01*
X215081000Y-79145000D02*
X215081000Y-80585000D01*
X215081000Y-75625000D02*
X215081000Y-77065000D01*
X215040000Y-79145000D02*
X215040000Y-80596000D01*
X215040000Y-75614000D02*
X215040000Y-77065000D01*
X215000000Y-79145000D02*
X215000000Y-80606000D01*
X215000000Y-75604000D02*
X215000000Y-77065000D01*
X214960000Y-79145000D02*
X214960000Y-80616000D01*
X214960000Y-75594000D02*
X214960000Y-77065000D01*
X214920000Y-79145000D02*
X214920000Y-80625000D01*
X214920000Y-75585000D02*
X214920000Y-77065000D01*
X214880000Y-79145000D02*
X214880000Y-80633000D01*
X214880000Y-75577000D02*
X214880000Y-77065000D01*
X214840000Y-79145000D02*
X214840000Y-80641000D01*
X214840000Y-75569000D02*
X214840000Y-77065000D01*
X214800000Y-79145000D02*
X214800000Y-80648000D01*
X214800000Y-75562000D02*
X214800000Y-77065000D01*
X214760000Y-79145000D02*
X214760000Y-80655000D01*
X214760000Y-75555000D02*
X214760000Y-77065000D01*
X214720000Y-79145000D02*
X214720000Y-80661000D01*
X214720000Y-75549000D02*
X214720000Y-77065000D01*
X214680000Y-79145000D02*
X214680000Y-80666000D01*
X214680000Y-75544000D02*
X214680000Y-77065000D01*
X214640000Y-79145000D02*
X214640000Y-80670000D01*
X214640000Y-75540000D02*
X214640000Y-77065000D01*
X214600000Y-79145000D02*
X214600000Y-80674000D01*
X214600000Y-75536000D02*
X214600000Y-77065000D01*
X214560000Y-79145000D02*
X214560000Y-80678000D01*
X214560000Y-75532000D02*
X214560000Y-77065000D01*
X214520000Y-79145000D02*
X214520000Y-80681000D01*
X214520000Y-75529000D02*
X214520000Y-77065000D01*
X214480000Y-79145000D02*
X214480000Y-80683000D01*
X214480000Y-75527000D02*
X214480000Y-77065000D01*
X214440000Y-79145000D02*
X214440000Y-80684000D01*
X214440000Y-75526000D02*
X214440000Y-77065000D01*
X214400000Y-75525000D02*
X214400000Y-77065000D01*
X214400000Y-79145000D02*
X214400000Y-80685000D01*
X214360000Y-75525000D02*
X214360000Y-77065000D01*
X214360000Y-79145000D02*
X214360000Y-80685000D01*
X216980000Y-78105000D02*
G75*
G03*
X216980000Y-78105000I-2620000J0D01*
G01*
%TO.C,C6*%
X209995000Y-78105000D02*
G75*
G03*
X209995000Y-78105000I-2620000J0D01*
G01*
X207375000Y-79145000D02*
X207375000Y-80685000D01*
X207375000Y-75525000D02*
X207375000Y-77065000D01*
X207415000Y-79145000D02*
X207415000Y-80685000D01*
X207415000Y-75525000D02*
X207415000Y-77065000D01*
X207455000Y-75526000D02*
X207455000Y-77065000D01*
X207455000Y-79145000D02*
X207455000Y-80684000D01*
X207495000Y-75527000D02*
X207495000Y-77065000D01*
X207495000Y-79145000D02*
X207495000Y-80683000D01*
X207535000Y-75529000D02*
X207535000Y-77065000D01*
X207535000Y-79145000D02*
X207535000Y-80681000D01*
X207575000Y-75532000D02*
X207575000Y-77065000D01*
X207575000Y-79145000D02*
X207575000Y-80678000D01*
X207615000Y-75536000D02*
X207615000Y-77065000D01*
X207615000Y-79145000D02*
X207615000Y-80674000D01*
X207655000Y-75540000D02*
X207655000Y-77065000D01*
X207655000Y-79145000D02*
X207655000Y-80670000D01*
X207695000Y-75544000D02*
X207695000Y-77065000D01*
X207695000Y-79145000D02*
X207695000Y-80666000D01*
X207735000Y-75549000D02*
X207735000Y-77065000D01*
X207735000Y-79145000D02*
X207735000Y-80661000D01*
X207775000Y-75555000D02*
X207775000Y-77065000D01*
X207775000Y-79145000D02*
X207775000Y-80655000D01*
X207815000Y-75562000D02*
X207815000Y-77065000D01*
X207815000Y-79145000D02*
X207815000Y-80648000D01*
X207855000Y-75569000D02*
X207855000Y-77065000D01*
X207855000Y-79145000D02*
X207855000Y-80641000D01*
X207895000Y-75577000D02*
X207895000Y-77065000D01*
X207895000Y-79145000D02*
X207895000Y-80633000D01*
X207935000Y-75585000D02*
X207935000Y-77065000D01*
X207935000Y-79145000D02*
X207935000Y-80625000D01*
X207975000Y-75594000D02*
X207975000Y-77065000D01*
X207975000Y-79145000D02*
X207975000Y-80616000D01*
X208015000Y-75604000D02*
X208015000Y-77065000D01*
X208015000Y-79145000D02*
X208015000Y-80606000D01*
X208055000Y-75614000D02*
X208055000Y-77065000D01*
X208055000Y-79145000D02*
X208055000Y-80596000D01*
X208096000Y-75625000D02*
X208096000Y-77065000D01*
X208096000Y-79145000D02*
X208096000Y-80585000D01*
X208136000Y-75637000D02*
X208136000Y-77065000D01*
X208136000Y-79145000D02*
X208136000Y-80573000D01*
X208176000Y-75650000D02*
X208176000Y-77065000D01*
X208176000Y-79145000D02*
X208176000Y-80560000D01*
X208216000Y-75663000D02*
X208216000Y-77065000D01*
X208216000Y-79145000D02*
X208216000Y-80547000D01*
X208256000Y-75677000D02*
X208256000Y-77065000D01*
X208256000Y-79145000D02*
X208256000Y-80533000D01*
X208296000Y-75691000D02*
X208296000Y-77065000D01*
X208296000Y-79145000D02*
X208296000Y-80519000D01*
X208336000Y-75707000D02*
X208336000Y-77065000D01*
X208336000Y-79145000D02*
X208336000Y-80503000D01*
X208376000Y-75723000D02*
X208376000Y-77065000D01*
X208376000Y-79145000D02*
X208376000Y-80487000D01*
X208416000Y-75740000D02*
X208416000Y-77065000D01*
X208416000Y-79145000D02*
X208416000Y-80470000D01*
X208456000Y-75757000D02*
X208456000Y-77065000D01*
X208456000Y-79145000D02*
X208456000Y-80453000D01*
X208496000Y-75776000D02*
X208496000Y-77065000D01*
X208496000Y-79145000D02*
X208496000Y-80434000D01*
X208536000Y-75795000D02*
X208536000Y-77065000D01*
X208536000Y-79145000D02*
X208536000Y-80415000D01*
X208576000Y-75815000D02*
X208576000Y-77065000D01*
X208576000Y-79145000D02*
X208576000Y-80395000D01*
X208616000Y-75837000D02*
X208616000Y-77065000D01*
X208616000Y-79145000D02*
X208616000Y-80373000D01*
X208656000Y-75858000D02*
X208656000Y-77065000D01*
X208656000Y-79145000D02*
X208656000Y-80352000D01*
X208696000Y-75881000D02*
X208696000Y-77065000D01*
X208696000Y-79145000D02*
X208696000Y-80329000D01*
X208736000Y-75905000D02*
X208736000Y-77065000D01*
X208736000Y-79145000D02*
X208736000Y-80305000D01*
X208776000Y-75930000D02*
X208776000Y-77065000D01*
X208776000Y-79145000D02*
X208776000Y-80280000D01*
X208816000Y-75956000D02*
X208816000Y-77065000D01*
X208816000Y-79145000D02*
X208816000Y-80254000D01*
X208856000Y-75983000D02*
X208856000Y-77065000D01*
X208856000Y-79145000D02*
X208856000Y-80227000D01*
X208896000Y-76010000D02*
X208896000Y-77065000D01*
X208896000Y-79145000D02*
X208896000Y-80200000D01*
X208936000Y-76040000D02*
X208936000Y-77065000D01*
X208936000Y-79145000D02*
X208936000Y-80170000D01*
X208976000Y-76070000D02*
X208976000Y-77065000D01*
X208976000Y-79145000D02*
X208976000Y-80140000D01*
X209016000Y-76101000D02*
X209016000Y-77065000D01*
X209016000Y-79145000D02*
X209016000Y-80109000D01*
X209056000Y-76134000D02*
X209056000Y-77065000D01*
X209056000Y-79145000D02*
X209056000Y-80076000D01*
X209096000Y-76168000D02*
X209096000Y-77065000D01*
X209096000Y-79145000D02*
X209096000Y-80042000D01*
X209136000Y-76204000D02*
X209136000Y-77065000D01*
X209136000Y-79145000D02*
X209136000Y-80006000D01*
X209176000Y-76241000D02*
X209176000Y-77065000D01*
X209176000Y-79145000D02*
X209176000Y-79969000D01*
X209216000Y-76279000D02*
X209216000Y-77065000D01*
X209216000Y-79145000D02*
X209216000Y-79931000D01*
X209256000Y-76320000D02*
X209256000Y-77065000D01*
X209256000Y-79145000D02*
X209256000Y-79890000D01*
X209296000Y-76362000D02*
X209296000Y-77065000D01*
X209296000Y-79145000D02*
X209296000Y-79848000D01*
X209336000Y-76406000D02*
X209336000Y-77065000D01*
X209336000Y-79145000D02*
X209336000Y-79804000D01*
X209376000Y-76452000D02*
X209376000Y-77065000D01*
X209376000Y-79145000D02*
X209376000Y-79758000D01*
X209416000Y-76500000D02*
X209416000Y-79710000D01*
X209456000Y-76551000D02*
X209456000Y-79659000D01*
X209496000Y-76605000D02*
X209496000Y-79605000D01*
X209536000Y-76662000D02*
X209536000Y-79548000D01*
X209576000Y-76722000D02*
X209576000Y-79488000D01*
X209616000Y-76786000D02*
X209616000Y-79424000D01*
X209656000Y-76854000D02*
X209656000Y-79356000D01*
X209696000Y-76927000D02*
X209696000Y-79283000D01*
X209736000Y-77007000D02*
X209736000Y-79203000D01*
X209776000Y-77094000D02*
X209776000Y-79116000D01*
X209816000Y-77190000D02*
X209816000Y-79020000D01*
X209856000Y-77300000D02*
X209856000Y-78910000D01*
X209896000Y-77428000D02*
X209896000Y-78782000D01*
X209936000Y-77587000D02*
X209936000Y-78623000D01*
X209976000Y-77821000D02*
X209976000Y-78389000D01*
X204570225Y-76630000D02*
X205070225Y-76630000D01*
X204820225Y-76380000D02*
X204820225Y-76880000D01*
%TO.C,C7*%
X123115000Y-58015348D02*
X123115000Y-58537852D01*
X124535000Y-58015348D02*
X124535000Y-58537852D01*
%TO.C,C8*%
X214670000Y-107910000D02*
G75*
G03*
X214670000Y-107910000I-5120000J0D01*
G01*
X214630000Y-107910000D02*
X204470000Y-107910000D01*
X214630000Y-107950000D02*
X204470000Y-107950000D01*
X214630000Y-107990000D02*
X204470000Y-107990000D01*
X214629000Y-108030000D02*
X204471000Y-108030000D01*
X214628000Y-108070000D02*
X204472000Y-108070000D01*
X214627000Y-108110000D02*
X204473000Y-108110000D01*
X214625000Y-108150000D02*
X204475000Y-108150000D01*
X214623000Y-108190000D02*
X204477000Y-108190000D01*
X214620000Y-108230000D02*
X204480000Y-108230000D01*
X214618000Y-108270000D02*
X204482000Y-108270000D01*
X214615000Y-108310000D02*
X204485000Y-108310000D01*
X214612000Y-108350000D02*
X204488000Y-108350000D01*
X214608000Y-108390000D02*
X204492000Y-108390000D01*
X214604000Y-108430000D02*
X204496000Y-108430000D01*
X214600000Y-108470000D02*
X204500000Y-108470000D01*
X214595000Y-108510000D02*
X204505000Y-108510000D01*
X214590000Y-108550000D02*
X204510000Y-108550000D01*
X214585000Y-108590000D02*
X204515000Y-108590000D01*
X214580000Y-108631000D02*
X204520000Y-108631000D01*
X214574000Y-108671000D02*
X204526000Y-108671000D01*
X214568000Y-108711000D02*
X204532000Y-108711000D01*
X214561000Y-108751000D02*
X204539000Y-108751000D01*
X214554000Y-108791000D02*
X204546000Y-108791000D01*
X214547000Y-108831000D02*
X204553000Y-108831000D01*
X214540000Y-108871000D02*
X204560000Y-108871000D01*
X214532000Y-108911000D02*
X204568000Y-108911000D01*
X214524000Y-108951000D02*
X204576000Y-108951000D01*
X214515000Y-108991000D02*
X204585000Y-108991000D01*
X214506000Y-109031000D02*
X204594000Y-109031000D01*
X214497000Y-109071000D02*
X204603000Y-109071000D01*
X214488000Y-109111000D02*
X204612000Y-109111000D01*
X214478000Y-109151000D02*
X204622000Y-109151000D01*
X214468000Y-109191000D02*
X210791000Y-109191000D01*
X208309000Y-109191000D02*
X204632000Y-109191000D01*
X214457000Y-109231000D02*
X210791000Y-109231000D01*
X208309000Y-109231000D02*
X204643000Y-109231000D01*
X214447000Y-109271000D02*
X210791000Y-109271000D01*
X208309000Y-109271000D02*
X204653000Y-109271000D01*
X214435000Y-109311000D02*
X210791000Y-109311000D01*
X208309000Y-109311000D02*
X204665000Y-109311000D01*
X214424000Y-109351000D02*
X210791000Y-109351000D01*
X208309000Y-109351000D02*
X204676000Y-109351000D01*
X214412000Y-109391000D02*
X210791000Y-109391000D01*
X208309000Y-109391000D02*
X204688000Y-109391000D01*
X214400000Y-109431000D02*
X210791000Y-109431000D01*
X208309000Y-109431000D02*
X204700000Y-109431000D01*
X214387000Y-109471000D02*
X210791000Y-109471000D01*
X208309000Y-109471000D02*
X204713000Y-109471000D01*
X214374000Y-109511000D02*
X210791000Y-109511000D01*
X208309000Y-109511000D02*
X204726000Y-109511000D01*
X214361000Y-109551000D02*
X210791000Y-109551000D01*
X208309000Y-109551000D02*
X204739000Y-109551000D01*
X214347000Y-109591000D02*
X210791000Y-109591000D01*
X208309000Y-109591000D02*
X204753000Y-109591000D01*
X214333000Y-109631000D02*
X210791000Y-109631000D01*
X208309000Y-109631000D02*
X204767000Y-109631000D01*
X214318000Y-109671000D02*
X210791000Y-109671000D01*
X208309000Y-109671000D02*
X204782000Y-109671000D01*
X214304000Y-109711000D02*
X210791000Y-109711000D01*
X208309000Y-109711000D02*
X204796000Y-109711000D01*
X214288000Y-109751000D02*
X210791000Y-109751000D01*
X208309000Y-109751000D02*
X204812000Y-109751000D01*
X214273000Y-109791000D02*
X210791000Y-109791000D01*
X208309000Y-109791000D02*
X204827000Y-109791000D01*
X214257000Y-109831000D02*
X210791000Y-109831000D01*
X208309000Y-109831000D02*
X204843000Y-109831000D01*
X214240000Y-109871000D02*
X210791000Y-109871000D01*
X208309000Y-109871000D02*
X204860000Y-109871000D01*
X214224000Y-109911000D02*
X210791000Y-109911000D01*
X208309000Y-109911000D02*
X204876000Y-109911000D01*
X214207000Y-109951000D02*
X210791000Y-109951000D01*
X208309000Y-109951000D02*
X204893000Y-109951000D01*
X214189000Y-109991000D02*
X210791000Y-109991000D01*
X208309000Y-109991000D02*
X204911000Y-109991000D01*
X214171000Y-110031000D02*
X210791000Y-110031000D01*
X208309000Y-110031000D02*
X204929000Y-110031000D01*
X214153000Y-110071000D02*
X210791000Y-110071000D01*
X208309000Y-110071000D02*
X204947000Y-110071000D01*
X214134000Y-110111000D02*
X210791000Y-110111000D01*
X208309000Y-110111000D02*
X204966000Y-110111000D01*
X214114000Y-110151000D02*
X210791000Y-110151000D01*
X208309000Y-110151000D02*
X204986000Y-110151000D01*
X214095000Y-110191000D02*
X210791000Y-110191000D01*
X208309000Y-110191000D02*
X205005000Y-110191000D01*
X214075000Y-110231000D02*
X210791000Y-110231000D01*
X208309000Y-110231000D02*
X205025000Y-110231000D01*
X214054000Y-110271000D02*
X210791000Y-110271000D01*
X208309000Y-110271000D02*
X205046000Y-110271000D01*
X214033000Y-110311000D02*
X210791000Y-110311000D01*
X208309000Y-110311000D02*
X205067000Y-110311000D01*
X214012000Y-110351000D02*
X210791000Y-110351000D01*
X208309000Y-110351000D02*
X205088000Y-110351000D01*
X213990000Y-110391000D02*
X210791000Y-110391000D01*
X208309000Y-110391000D02*
X205110000Y-110391000D01*
X213967000Y-110431000D02*
X210791000Y-110431000D01*
X208309000Y-110431000D02*
X205133000Y-110431000D01*
X213945000Y-110471000D02*
X210791000Y-110471000D01*
X208309000Y-110471000D02*
X205155000Y-110471000D01*
X213921000Y-110511000D02*
X210791000Y-110511000D01*
X208309000Y-110511000D02*
X205179000Y-110511000D01*
X213897000Y-110551000D02*
X210791000Y-110551000D01*
X208309000Y-110551000D02*
X205203000Y-110551000D01*
X213873000Y-110591000D02*
X210791000Y-110591000D01*
X208309000Y-110591000D02*
X205227000Y-110591000D01*
X213848000Y-110631000D02*
X210791000Y-110631000D01*
X208309000Y-110631000D02*
X205252000Y-110631000D01*
X213823000Y-110671000D02*
X210791000Y-110671000D01*
X208309000Y-110671000D02*
X205277000Y-110671000D01*
X213797000Y-110711000D02*
X210791000Y-110711000D01*
X208309000Y-110711000D02*
X205303000Y-110711000D01*
X213771000Y-110751000D02*
X210791000Y-110751000D01*
X208309000Y-110751000D02*
X205329000Y-110751000D01*
X213744000Y-110791000D02*
X210791000Y-110791000D01*
X208309000Y-110791000D02*
X205356000Y-110791000D01*
X213716000Y-110831000D02*
X210791000Y-110831000D01*
X208309000Y-110831000D02*
X205384000Y-110831000D01*
X213688000Y-110871000D02*
X210791000Y-110871000D01*
X208309000Y-110871000D02*
X205412000Y-110871000D01*
X213660000Y-110911000D02*
X210791000Y-110911000D01*
X208309000Y-110911000D02*
X205440000Y-110911000D01*
X213630000Y-110951000D02*
X210791000Y-110951000D01*
X208309000Y-110951000D02*
X205470000Y-110951000D01*
X213600000Y-110991000D02*
X210791000Y-110991000D01*
X208309000Y-110991000D02*
X205500000Y-110991000D01*
X213570000Y-111031000D02*
X210791000Y-111031000D01*
X208309000Y-111031000D02*
X205530000Y-111031000D01*
X213539000Y-111071000D02*
X210791000Y-111071000D01*
X208309000Y-111071000D02*
X205561000Y-111071000D01*
X213507000Y-111111000D02*
X210791000Y-111111000D01*
X208309000Y-111111000D02*
X205593000Y-111111000D01*
X213475000Y-111151000D02*
X210791000Y-111151000D01*
X208309000Y-111151000D02*
X205625000Y-111151000D01*
X213442000Y-111191000D02*
X210791000Y-111191000D01*
X208309000Y-111191000D02*
X205658000Y-111191000D01*
X213408000Y-111231000D02*
X210791000Y-111231000D01*
X208309000Y-111231000D02*
X205692000Y-111231000D01*
X213374000Y-111271000D02*
X210791000Y-111271000D01*
X208309000Y-111271000D02*
X205726000Y-111271000D01*
X213339000Y-111311000D02*
X210791000Y-111311000D01*
X208309000Y-111311000D02*
X205761000Y-111311000D01*
X213303000Y-111351000D02*
X210791000Y-111351000D01*
X208309000Y-111351000D02*
X205797000Y-111351000D01*
X213266000Y-111391000D02*
X210791000Y-111391000D01*
X208309000Y-111391000D02*
X205834000Y-111391000D01*
X213229000Y-111431000D02*
X210791000Y-111431000D01*
X208309000Y-111431000D02*
X205871000Y-111431000D01*
X213190000Y-111471000D02*
X210791000Y-111471000D01*
X208309000Y-111471000D02*
X205910000Y-111471000D01*
X213151000Y-111511000D02*
X210791000Y-111511000D01*
X208309000Y-111511000D02*
X205949000Y-111511000D01*
X213111000Y-111551000D02*
X210791000Y-111551000D01*
X208309000Y-111551000D02*
X205989000Y-111551000D01*
X213070000Y-111591000D02*
X210791000Y-111591000D01*
X208309000Y-111591000D02*
X206030000Y-111591000D01*
X213028000Y-111631000D02*
X210791000Y-111631000D01*
X208309000Y-111631000D02*
X206072000Y-111631000D01*
X212986000Y-111671000D02*
X206114000Y-111671000D01*
X212942000Y-111711000D02*
X206158000Y-111711000D01*
X212897000Y-111751000D02*
X206203000Y-111751000D01*
X212851000Y-111791000D02*
X206249000Y-111791000D01*
X212804000Y-111831000D02*
X206296000Y-111831000D01*
X212756000Y-111871000D02*
X206344000Y-111871000D01*
X212706000Y-111911000D02*
X206394000Y-111911000D01*
X212656000Y-111951000D02*
X206444000Y-111951000D01*
X212604000Y-111991000D02*
X206496000Y-111991000D01*
X212550000Y-112031000D02*
X206550000Y-112031000D01*
X212495000Y-112071000D02*
X206605000Y-112071000D01*
X212439000Y-112111000D02*
X206661000Y-112111000D01*
X212380000Y-112151000D02*
X206720000Y-112151000D01*
X212320000Y-112191000D02*
X206780000Y-112191000D01*
X212259000Y-112231000D02*
X206841000Y-112231000D01*
X212195000Y-112271000D02*
X206905000Y-112271000D01*
X212129000Y-112311000D02*
X206971000Y-112311000D01*
X212060000Y-112351000D02*
X207040000Y-112351000D01*
X211989000Y-112391000D02*
X207111000Y-112391000D01*
X211915000Y-112431000D02*
X207185000Y-112431000D01*
X211839000Y-112471000D02*
X207261000Y-112471000D01*
X211759000Y-112511000D02*
X207341000Y-112511000D01*
X211675000Y-112551000D02*
X207425000Y-112551000D01*
X211587000Y-112591000D02*
X207513000Y-112591000D01*
X211494000Y-112631000D02*
X207606000Y-112631000D01*
X211396000Y-112671000D02*
X207704000Y-112671000D01*
X211292000Y-112711000D02*
X207808000Y-112711000D01*
X211180000Y-112751000D02*
X207920000Y-112751000D01*
X211060000Y-112791000D02*
X208040000Y-112791000D01*
X210928000Y-112831000D02*
X208172000Y-112831000D01*
X210780000Y-112871000D02*
X208320000Y-112871000D01*
X210612000Y-112911000D02*
X208488000Y-112911000D01*
X210412000Y-112951000D02*
X208688000Y-112951000D01*
X210149000Y-112991000D02*
X208951000Y-112991000D01*
X212425000Y-102430354D02*
X212425000Y-103430354D01*
X212925000Y-102930354D02*
X211925000Y-102930354D01*
%TO.C,C9*%
X148050000Y-121920000D02*
G75*
G03*
X148050000Y-121920000I-7120000J0D01*
G01*
X140930000Y-114840000D02*
X140930000Y-129000000D01*
X140970000Y-114840000D02*
X140970000Y-129000000D01*
X141010000Y-114840000D02*
X141010000Y-129000000D01*
X141050000Y-114841000D02*
X141050000Y-128999000D01*
X141090000Y-114841000D02*
X141090000Y-128999000D01*
X141130000Y-114842000D02*
X141130000Y-128998000D01*
X141170000Y-114844000D02*
X141170000Y-128996000D01*
X141210000Y-114845000D02*
X141210000Y-128995000D01*
X141250000Y-114847000D02*
X141250000Y-128993000D01*
X141290000Y-114849000D02*
X141290000Y-128991000D01*
X141330000Y-114851000D02*
X141330000Y-128989000D01*
X141370000Y-114853000D02*
X141370000Y-128987000D01*
X141410000Y-114856000D02*
X141410000Y-128984000D01*
X141450000Y-114859000D02*
X141450000Y-128981000D01*
X141490000Y-114862000D02*
X141490000Y-128978000D01*
X141530000Y-114865000D02*
X141530000Y-128975000D01*
X141570000Y-114868000D02*
X141570000Y-128972000D01*
X141610000Y-114872000D02*
X141610000Y-128968000D01*
X141651000Y-114876000D02*
X141651000Y-128964000D01*
X141691000Y-114880000D02*
X141691000Y-128960000D01*
X141731000Y-114885000D02*
X141731000Y-128955000D01*
X141771000Y-114889000D02*
X141771000Y-128951000D01*
X141811000Y-114894000D02*
X141811000Y-128946000D01*
X141851000Y-114899000D02*
X141851000Y-128941000D01*
X141891000Y-114905000D02*
X141891000Y-128935000D01*
X141931000Y-114910000D02*
X141931000Y-128930000D01*
X141971000Y-114916000D02*
X141971000Y-128924000D01*
X142011000Y-114922000D02*
X142011000Y-120480000D01*
X142011000Y-123360000D02*
X142011000Y-128918000D01*
X142051000Y-114928000D02*
X142051000Y-120480000D01*
X142051000Y-123360000D02*
X142051000Y-128912000D01*
X142091000Y-114935000D02*
X142091000Y-120480000D01*
X142091000Y-123360000D02*
X142091000Y-128905000D01*
X142131000Y-114941000D02*
X142131000Y-120480000D01*
X142131000Y-123360000D02*
X142131000Y-128899000D01*
X142171000Y-114948000D02*
X142171000Y-120480000D01*
X142171000Y-123360000D02*
X142171000Y-128892000D01*
X142211000Y-114956000D02*
X142211000Y-120480000D01*
X142211000Y-123360000D02*
X142211000Y-128884000D01*
X142251000Y-114963000D02*
X142251000Y-120480000D01*
X142251000Y-123360000D02*
X142251000Y-128877000D01*
X142291000Y-114971000D02*
X142291000Y-120480000D01*
X142291000Y-123360000D02*
X142291000Y-128869000D01*
X142331000Y-114978000D02*
X142331000Y-120480000D01*
X142331000Y-123360000D02*
X142331000Y-128862000D01*
X142371000Y-114987000D02*
X142371000Y-120480000D01*
X142371000Y-123360000D02*
X142371000Y-128853000D01*
X142411000Y-114995000D02*
X142411000Y-120480000D01*
X142411000Y-123360000D02*
X142411000Y-128845000D01*
X142451000Y-115004000D02*
X142451000Y-120480000D01*
X142451000Y-123360000D02*
X142451000Y-128836000D01*
X142491000Y-115013000D02*
X142491000Y-120480000D01*
X142491000Y-123360000D02*
X142491000Y-128827000D01*
X142531000Y-115022000D02*
X142531000Y-120480000D01*
X142531000Y-123360000D02*
X142531000Y-128818000D01*
X142571000Y-115031000D02*
X142571000Y-120480000D01*
X142571000Y-123360000D02*
X142571000Y-128809000D01*
X142611000Y-115041000D02*
X142611000Y-120480000D01*
X142611000Y-123360000D02*
X142611000Y-128799000D01*
X142651000Y-115050000D02*
X142651000Y-120480000D01*
X142651000Y-123360000D02*
X142651000Y-128790000D01*
X142691000Y-115060000D02*
X142691000Y-120480000D01*
X142691000Y-123360000D02*
X142691000Y-128780000D01*
X142731000Y-115071000D02*
X142731000Y-120480000D01*
X142731000Y-123360000D02*
X142731000Y-128769000D01*
X142771000Y-115081000D02*
X142771000Y-120480000D01*
X142771000Y-123360000D02*
X142771000Y-128759000D01*
X142811000Y-115092000D02*
X142811000Y-120480000D01*
X142811000Y-123360000D02*
X142811000Y-128748000D01*
X142851000Y-115103000D02*
X142851000Y-120480000D01*
X142851000Y-123360000D02*
X142851000Y-128737000D01*
X142891000Y-115115000D02*
X142891000Y-120480000D01*
X142891000Y-123360000D02*
X142891000Y-128725000D01*
X142931000Y-115126000D02*
X142931000Y-120480000D01*
X142931000Y-123360000D02*
X142931000Y-128714000D01*
X142971000Y-115138000D02*
X142971000Y-120480000D01*
X142971000Y-123360000D02*
X142971000Y-128702000D01*
X143011000Y-115150000D02*
X143011000Y-120480000D01*
X143011000Y-123360000D02*
X143011000Y-128690000D01*
X143051000Y-115162000D02*
X143051000Y-120480000D01*
X143051000Y-123360000D02*
X143051000Y-128678000D01*
X143091000Y-115175000D02*
X143091000Y-120480000D01*
X143091000Y-123360000D02*
X143091000Y-128665000D01*
X143131000Y-115188000D02*
X143131000Y-120480000D01*
X143131000Y-123360000D02*
X143131000Y-128652000D01*
X143171000Y-115201000D02*
X143171000Y-120480000D01*
X143171000Y-123360000D02*
X143171000Y-128639000D01*
X143211000Y-115214000D02*
X143211000Y-120480000D01*
X143211000Y-123360000D02*
X143211000Y-128626000D01*
X143251000Y-115228000D02*
X143251000Y-120480000D01*
X143251000Y-123360000D02*
X143251000Y-128612000D01*
X143291000Y-115242000D02*
X143291000Y-120480000D01*
X143291000Y-123360000D02*
X143291000Y-128598000D01*
X143331000Y-115256000D02*
X143331000Y-120480000D01*
X143331000Y-123360000D02*
X143331000Y-128584000D01*
X143371000Y-115271000D02*
X143371000Y-120480000D01*
X143371000Y-123360000D02*
X143371000Y-128569000D01*
X143411000Y-115285000D02*
X143411000Y-120480000D01*
X143411000Y-123360000D02*
X143411000Y-128555000D01*
X143451000Y-115300000D02*
X143451000Y-120480000D01*
X143451000Y-123360000D02*
X143451000Y-128540000D01*
X143491000Y-115316000D02*
X143491000Y-120480000D01*
X143491000Y-123360000D02*
X143491000Y-128524000D01*
X143531000Y-115331000D02*
X143531000Y-120480000D01*
X143531000Y-123360000D02*
X143531000Y-128509000D01*
X143571000Y-115347000D02*
X143571000Y-120480000D01*
X143571000Y-123360000D02*
X143571000Y-128493000D01*
X143611000Y-115363000D02*
X143611000Y-120480000D01*
X143611000Y-123360000D02*
X143611000Y-128477000D01*
X143651000Y-115380000D02*
X143651000Y-120480000D01*
X143651000Y-123360000D02*
X143651000Y-128460000D01*
X143691000Y-115396000D02*
X143691000Y-120480000D01*
X143691000Y-123360000D02*
X143691000Y-128444000D01*
X143731000Y-115413000D02*
X143731000Y-120480000D01*
X143731000Y-123360000D02*
X143731000Y-128427000D01*
X143771000Y-115430000D02*
X143771000Y-120480000D01*
X143771000Y-123360000D02*
X143771000Y-128410000D01*
X143811000Y-115448000D02*
X143811000Y-120480000D01*
X143811000Y-123360000D02*
X143811000Y-128392000D01*
X143851000Y-115466000D02*
X143851000Y-120480000D01*
X143851000Y-123360000D02*
X143851000Y-128374000D01*
X143891000Y-115484000D02*
X143891000Y-120480000D01*
X143891000Y-123360000D02*
X143891000Y-128356000D01*
X143931000Y-115502000D02*
X143931000Y-120480000D01*
X143931000Y-123360000D02*
X143931000Y-128338000D01*
X143971000Y-115521000D02*
X143971000Y-120480000D01*
X143971000Y-123360000D02*
X143971000Y-128319000D01*
X144011000Y-115540000D02*
X144011000Y-120480000D01*
X144011000Y-123360000D02*
X144011000Y-128300000D01*
X144051000Y-115560000D02*
X144051000Y-120480000D01*
X144051000Y-123360000D02*
X144051000Y-128280000D01*
X144091000Y-115579000D02*
X144091000Y-120480000D01*
X144091000Y-123360000D02*
X144091000Y-128261000D01*
X144131000Y-115599000D02*
X144131000Y-120480000D01*
X144131000Y-123360000D02*
X144131000Y-128241000D01*
X144171000Y-115619000D02*
X144171000Y-120480000D01*
X144171000Y-123360000D02*
X144171000Y-128221000D01*
X144211000Y-115640000D02*
X144211000Y-120480000D01*
X144211000Y-123360000D02*
X144211000Y-128200000D01*
X144251000Y-115661000D02*
X144251000Y-120480000D01*
X144251000Y-123360000D02*
X144251000Y-128179000D01*
X144291000Y-115682000D02*
X144291000Y-120480000D01*
X144291000Y-123360000D02*
X144291000Y-128158000D01*
X144331000Y-115704000D02*
X144331000Y-120480000D01*
X144331000Y-123360000D02*
X144331000Y-128136000D01*
X144371000Y-115726000D02*
X144371000Y-120480000D01*
X144371000Y-123360000D02*
X144371000Y-128114000D01*
X144411000Y-115748000D02*
X144411000Y-120480000D01*
X144411000Y-123360000D02*
X144411000Y-128092000D01*
X144451000Y-115770000D02*
X144451000Y-120480000D01*
X144451000Y-123360000D02*
X144451000Y-128070000D01*
X144491000Y-115793000D02*
X144491000Y-120480000D01*
X144491000Y-123360000D02*
X144491000Y-128047000D01*
X144531000Y-115817000D02*
X144531000Y-120480000D01*
X144531000Y-123360000D02*
X144531000Y-128023000D01*
X144571000Y-115840000D02*
X144571000Y-120480000D01*
X144571000Y-123360000D02*
X144571000Y-128000000D01*
X144611000Y-115864000D02*
X144611000Y-120480000D01*
X144611000Y-123360000D02*
X144611000Y-127976000D01*
X144651000Y-115889000D02*
X144651000Y-120480000D01*
X144651000Y-123360000D02*
X144651000Y-127951000D01*
X144691000Y-115913000D02*
X144691000Y-120480000D01*
X144691000Y-123360000D02*
X144691000Y-127927000D01*
X144731000Y-115938000D02*
X144731000Y-120480000D01*
X144731000Y-123360000D02*
X144731000Y-127902000D01*
X144771000Y-115964000D02*
X144771000Y-120480000D01*
X144771000Y-123360000D02*
X144771000Y-127876000D01*
X144811000Y-115990000D02*
X144811000Y-120480000D01*
X144811000Y-123360000D02*
X144811000Y-127850000D01*
X144851000Y-116016000D02*
X144851000Y-120480000D01*
X144851000Y-123360000D02*
X144851000Y-127824000D01*
X144891000Y-116042000D02*
X144891000Y-127798000D01*
X144931000Y-116069000D02*
X144931000Y-127771000D01*
X144971000Y-116097000D02*
X144971000Y-127743000D01*
X145011000Y-116124000D02*
X145011000Y-127716000D01*
X145051000Y-116153000D02*
X145051000Y-127687000D01*
X145091000Y-116181000D02*
X145091000Y-127659000D01*
X145131000Y-116210000D02*
X145131000Y-127630000D01*
X145171000Y-116240000D02*
X145171000Y-127600000D01*
X145211000Y-116270000D02*
X145211000Y-127570000D01*
X145251000Y-116300000D02*
X145251000Y-127540000D01*
X145291000Y-116331000D02*
X145291000Y-127509000D01*
X145331000Y-116362000D02*
X145331000Y-127478000D01*
X145371000Y-116393000D02*
X145371000Y-127447000D01*
X145411000Y-116426000D02*
X145411000Y-127414000D01*
X145451000Y-116458000D02*
X145451000Y-127382000D01*
X145491000Y-116491000D02*
X145491000Y-127349000D01*
X145531000Y-116525000D02*
X145531000Y-127315000D01*
X145571000Y-116559000D02*
X145571000Y-127281000D01*
X145611000Y-116594000D02*
X145611000Y-127246000D01*
X145651000Y-116629000D02*
X145651000Y-127211000D01*
X145691000Y-116665000D02*
X145691000Y-127175000D01*
X145731000Y-116701000D02*
X145731000Y-127139000D01*
X145771000Y-116738000D02*
X145771000Y-127102000D01*
X145811000Y-116775000D02*
X145811000Y-127065000D01*
X145851000Y-116813000D02*
X145851000Y-127027000D01*
X145891000Y-116851000D02*
X145891000Y-126989000D01*
X145931000Y-116891000D02*
X145931000Y-126949000D01*
X145971000Y-116930000D02*
X145971000Y-126910000D01*
X146011000Y-116971000D02*
X146011000Y-126869000D01*
X146051000Y-117012000D02*
X146051000Y-126828000D01*
X146091000Y-117054000D02*
X146091000Y-126786000D01*
X146131000Y-117096000D02*
X146131000Y-126744000D01*
X146171000Y-117139000D02*
X146171000Y-126701000D01*
X146211000Y-117183000D02*
X146211000Y-126657000D01*
X146251000Y-117227000D02*
X146251000Y-126613000D01*
X146291000Y-117273000D02*
X146291000Y-126567000D01*
X146331000Y-117319000D02*
X146331000Y-126521000D01*
X146371000Y-117366000D02*
X146371000Y-126474000D01*
X146411000Y-117414000D02*
X146411000Y-126426000D01*
X146451000Y-117462000D02*
X146451000Y-126378000D01*
X146491000Y-117512000D02*
X146491000Y-126328000D01*
X146531000Y-117562000D02*
X146531000Y-126278000D01*
X146571000Y-117614000D02*
X146571000Y-126226000D01*
X146611000Y-117666000D02*
X146611000Y-126174000D01*
X146651000Y-117720000D02*
X146651000Y-126120000D01*
X146691000Y-117774000D02*
X146691000Y-126066000D01*
X146731000Y-117830000D02*
X146731000Y-126010000D01*
X146771000Y-117887000D02*
X146771000Y-125953000D01*
X146811000Y-117945000D02*
X146811000Y-125895000D01*
X146851000Y-118004000D02*
X146851000Y-125836000D01*
X146891000Y-118064000D02*
X146891000Y-125776000D01*
X146931000Y-118126000D02*
X146931000Y-125714000D01*
X146971000Y-118190000D02*
X146971000Y-125650000D01*
X147011000Y-118254000D02*
X147011000Y-125586000D01*
X147051000Y-118321000D02*
X147051000Y-125519000D01*
X147091000Y-118389000D02*
X147091000Y-125451000D01*
X147131000Y-118459000D02*
X147131000Y-125381000D01*
X147171000Y-118531000D02*
X147171000Y-125309000D01*
X147211000Y-118605000D02*
X147211000Y-125235000D01*
X147251000Y-118680000D02*
X147251000Y-125160000D01*
X147291000Y-118759000D02*
X147291000Y-125081000D01*
X147331000Y-118840000D02*
X147331000Y-125000000D01*
X147371000Y-118923000D02*
X147371000Y-124917000D01*
X147411000Y-119009000D02*
X147411000Y-124831000D01*
X147451000Y-119099000D02*
X147451000Y-124741000D01*
X147491000Y-119192000D02*
X147491000Y-124648000D01*
X147531000Y-119288000D02*
X147531000Y-124552000D01*
X147571000Y-119390000D02*
X147571000Y-124450000D01*
X147611000Y-119495000D02*
X147611000Y-124345000D01*
X147651000Y-119607000D02*
X147651000Y-124233000D01*
X147691000Y-119724000D02*
X147691000Y-124116000D01*
X147731000Y-119849000D02*
X147731000Y-123991000D01*
X147771000Y-119982000D02*
X147771000Y-123858000D01*
X147811000Y-120126000D02*
X147811000Y-123714000D01*
X147851000Y-120284000D02*
X147851000Y-123556000D01*
X147891000Y-120459000D02*
X147891000Y-123381000D01*
X147931000Y-120658000D02*
X147931000Y-123182000D01*
X147971000Y-120895000D02*
X147971000Y-122945000D01*
X148011000Y-121206000D02*
X148011000Y-122634000D01*
X133310457Y-117925000D02*
X134710457Y-117925000D01*
X134010457Y-117225000D02*
X134010457Y-118625000D01*
%TO.C,D1*%
X164405000Y-107680000D02*
X164405000Y-108930000D01*
X164405000Y-108930000D02*
X174685000Y-108930000D01*
X174685000Y-108930000D02*
X174685000Y-104430000D01*
X174685000Y-104430000D02*
X164405000Y-104430000D01*
X164405000Y-104430000D02*
X164405000Y-105680000D01*
X164345000Y-111930000D02*
X174745000Y-111930000D01*
X174745000Y-111930000D02*
X174745000Y-101430000D01*
X174745000Y-101430000D02*
X164345000Y-101430000D01*
X164345000Y-101430000D02*
X164345000Y-111930000D01*
X164405000Y-105680000D02*
G75*
G02*
X164405000Y-107680000I0J-1000000D01*
G01*
%TO.C,J1*%
X84268000Y-98866000D02*
X86928000Y-98866000D01*
X84268000Y-88646000D02*
X84268000Y-98866000D01*
X86928000Y-88646000D02*
X86928000Y-98866000D01*
X84268000Y-88646000D02*
X86928000Y-88646000D01*
X84268000Y-87376000D02*
X84268000Y-86046000D01*
X84268000Y-86046000D02*
X85598000Y-86046000D01*
%TO.C,J2*%
X154746000Y-64322000D02*
X154746000Y-61662000D01*
X131826000Y-64322000D02*
X154746000Y-64322000D01*
X131826000Y-61662000D02*
X154746000Y-61662000D01*
X131826000Y-64322000D02*
X131826000Y-61662000D01*
X130556000Y-64322000D02*
X129226000Y-64322000D01*
X129226000Y-64322000D02*
X129226000Y-62992000D01*
%TO.C,J3*%
X213300000Y-72220000D02*
X214350000Y-72220000D01*
X214350000Y-71170000D02*
X214350000Y-72220000D01*
X204950000Y-66120000D02*
X204950000Y-57320000D01*
X204950000Y-57320000D02*
X214150000Y-57320000D01*
X207650000Y-72020000D02*
X204950000Y-72020000D01*
X204950000Y-72020000D02*
X204950000Y-70120000D01*
X214150000Y-57320000D02*
X214150000Y-72020000D01*
X214150000Y-72020000D02*
X211550000Y-72020000D01*
%TO.C,L1*%
X127995000Y-94164564D02*
X127995000Y-92960436D01*
X129815000Y-94164564D02*
X129815000Y-92960436D01*
%TO.C,L2*%
X217035000Y-126040000D02*
X210657000Y-126040000D01*
X207173000Y-126040000D02*
X200795000Y-126040000D01*
X217035000Y-117800000D02*
X210657000Y-117800000D01*
X207173000Y-117800000D02*
X200795000Y-117800000D01*
X217035000Y-126040000D02*
X217035000Y-117800000D01*
X200795000Y-126040000D02*
X200795000Y-117800000D01*
%TO.C,R2*%
X115553748Y-125170000D02*
X116076252Y-125170000D01*
X115553748Y-123750000D02*
X116076252Y-123750000D01*
%TO.C,R3*%
X181710000Y-103410000D02*
X181380000Y-103410000D01*
X181710000Y-109950000D02*
X181710000Y-103410000D01*
X181380000Y-109950000D02*
X181710000Y-109950000D01*
X178970000Y-103410000D02*
X179300000Y-103410000D01*
X178970000Y-109950000D02*
X178970000Y-103410000D01*
X179300000Y-109950000D02*
X178970000Y-109950000D01*
%TO.C,R4*%
X178535000Y-103410000D02*
X178205000Y-103410000D01*
X178535000Y-109950000D02*
X178535000Y-103410000D01*
X178205000Y-109950000D02*
X178535000Y-109950000D01*
X175795000Y-103410000D02*
X176125000Y-103410000D01*
X175795000Y-109950000D02*
X175795000Y-103410000D01*
X176125000Y-109950000D02*
X175795000Y-109950000D01*
%TO.C,R5*%
X182145000Y-109950000D02*
X182475000Y-109950000D01*
X182145000Y-103410000D02*
X182145000Y-109950000D01*
X182475000Y-103410000D02*
X182145000Y-103410000D01*
X184885000Y-109950000D02*
X184555000Y-109950000D01*
X184885000Y-103410000D02*
X184885000Y-109950000D01*
X184555000Y-103410000D02*
X184885000Y-103410000D01*
%TO.C,R6*%
X175990000Y-100430000D02*
X175990000Y-97690000D01*
X175990000Y-97690000D02*
X169450000Y-97690000D01*
X169450000Y-97690000D02*
X169450000Y-100430000D01*
X169450000Y-100430000D02*
X175990000Y-100430000D01*
X179300000Y-99060000D02*
X175990000Y-99060000D01*
X166140000Y-99060000D02*
X169450000Y-99060000D01*
%TO.C,R7*%
X165863748Y-66750000D02*
X166386252Y-66750000D01*
X165863748Y-65330000D02*
X166386252Y-65330000D01*
%TO.C,R8*%
X187730000Y-103410000D02*
X188060000Y-103410000D01*
X188060000Y-103410000D02*
X188060000Y-109950000D01*
X188060000Y-109950000D02*
X187730000Y-109950000D01*
X185650000Y-103410000D02*
X185320000Y-103410000D01*
X185320000Y-103410000D02*
X185320000Y-109950000D01*
X185320000Y-109950000D02*
X185650000Y-109950000D01*
%TO.C,R9*%
X192000000Y-109950000D02*
X191670000Y-109950000D01*
X191670000Y-109950000D02*
X191670000Y-103410000D01*
X191670000Y-103410000D02*
X192000000Y-103410000D01*
X194080000Y-109950000D02*
X194410000Y-109950000D01*
X194410000Y-109950000D02*
X194410000Y-103410000D01*
X194410000Y-103410000D02*
X194080000Y-103410000D01*
%TO.C,R10*%
X176513748Y-65330000D02*
X177036252Y-65330000D01*
X176513748Y-66750000D02*
X177036252Y-66750000D01*
%TO.C,R11*%
X190905000Y-103410000D02*
X191235000Y-103410000D01*
X191235000Y-103410000D02*
X191235000Y-109950000D01*
X191235000Y-109950000D02*
X190905000Y-109950000D01*
X188825000Y-103410000D02*
X188495000Y-103410000D01*
X188495000Y-103410000D02*
X188495000Y-109950000D01*
X188495000Y-109950000D02*
X188825000Y-109950000D01*
%TO.C,R12*%
X195175000Y-109950000D02*
X194845000Y-109950000D01*
X194845000Y-109950000D02*
X194845000Y-103410000D01*
X194845000Y-103410000D02*
X195175000Y-103410000D01*
X197255000Y-109950000D02*
X197585000Y-109950000D01*
X197585000Y-109950000D02*
X197585000Y-103410000D01*
X197585000Y-103410000D02*
X197255000Y-103410000D01*
%TO.C,R13*%
X186673748Y-66750000D02*
X187196252Y-66750000D01*
X186673748Y-65330000D02*
X187196252Y-65330000D01*
%TO.C,R14*%
X196343748Y-65330000D02*
X196866252Y-65330000D01*
X196343748Y-66750000D02*
X196866252Y-66750000D01*
%TO.C,R15*%
X143605000Y-104240000D02*
X143605000Y-103910000D01*
X137065000Y-104240000D02*
X143605000Y-104240000D01*
X137065000Y-103910000D02*
X137065000Y-104240000D01*
X143605000Y-101500000D02*
X143605000Y-101830000D01*
X137065000Y-101500000D02*
X143605000Y-101500000D01*
X137065000Y-101830000D02*
X137065000Y-101500000D01*
%TO.C,RV1*%
X167395000Y-121155000D02*
X167395000Y-118125000D01*
X167395000Y-116825000D02*
X167395000Y-113915000D01*
X174235000Y-121155000D02*
X174235000Y-118125000D01*
X174235000Y-116825000D02*
X174235000Y-113915000D01*
X167395000Y-121155000D02*
X174235000Y-121155000D01*
X167395000Y-113915000D02*
X174235000Y-113915000D01*
%TO.C,SW1*%
X102000000Y-132540000D02*
X102000000Y-131040000D01*
X100750000Y-128540000D02*
X96250000Y-128540000D01*
X95000000Y-131040000D02*
X95000000Y-132540000D01*
X96250000Y-135040000D02*
X100750000Y-135040000D01*
%TO.C,SW2*%
X110220000Y-135040000D02*
X114720000Y-135040000D01*
X108970000Y-131040000D02*
X108970000Y-132540000D01*
X114720000Y-128540000D02*
X110220000Y-128540000D01*
X115970000Y-132540000D02*
X115970000Y-131040000D01*
%TO.C,SW3*%
X169945000Y-61420000D02*
X169945000Y-59920000D01*
X168695000Y-57420000D02*
X164195000Y-57420000D01*
X162945000Y-59920000D02*
X162945000Y-61420000D01*
X164195000Y-63920000D02*
X168695000Y-63920000D01*
%TO.C,SW4*%
X174355000Y-63920000D02*
X178855000Y-63920000D01*
X173105000Y-59920000D02*
X173105000Y-61420000D01*
X178855000Y-57420000D02*
X174355000Y-57420000D01*
X180105000Y-61420000D02*
X180105000Y-59920000D01*
%TO.C,SW5*%
X190265000Y-61420000D02*
X190265000Y-59920000D01*
X189015000Y-57420000D02*
X184515000Y-57420000D01*
X183265000Y-59920000D02*
X183265000Y-61420000D01*
X184515000Y-63920000D02*
X189015000Y-63920000D01*
%TO.C,SW6*%
X194675000Y-63920000D02*
X199175000Y-63920000D01*
X193425000Y-59920000D02*
X193425000Y-61420000D01*
X199175000Y-57420000D02*
X194675000Y-57420000D01*
X200425000Y-61420000D02*
X200425000Y-59920000D01*
%TO.C,T1*%
X139700000Y-100490000D02*
X143560000Y-100490000D01*
X143560000Y-100490000D02*
X143560000Y-100255000D01*
X139700000Y-100490000D02*
X135840000Y-100490000D01*
X135840000Y-100490000D02*
X135840000Y-100255000D01*
X139700000Y-87470000D02*
X143560000Y-87470000D01*
X143560000Y-87470000D02*
X143560000Y-87705000D01*
X139700000Y-87470000D02*
X135840000Y-87470000D01*
X135840000Y-87470000D02*
X135840000Y-87705000D01*
X135840000Y-87705000D02*
X134025000Y-87705000D01*
%TO.C,U1*%
X120650000Y-104140000D02*
X120650000Y-55880000D01*
X120650000Y-55880000D02*
X92710000Y-55880000D01*
X92710000Y-55880000D02*
X92710000Y-104140000D01*
X92710000Y-104140000D02*
X120650000Y-104140000D01*
X116840000Y-104140000D02*
X116840000Y-109220000D01*
X116840000Y-109220000D02*
X95250000Y-109220000D01*
X95250000Y-109220000D02*
X95250000Y-104140000D01*
X109220000Y-55880000D02*
X109220000Y-57150000D01*
X109220000Y-57150000D02*
X104140000Y-57150000D01*
X104140000Y-57150000D02*
X104140000Y-55880000D01*
%TO.C,U2*%
X210940000Y-94020000D02*
X210940000Y-83780000D01*
X195050000Y-94020000D02*
X195050000Y-83780000D01*
X195050000Y-94020000D02*
X210940000Y-94020000D01*
X195050000Y-83780000D02*
X210940000Y-83780000D01*
X210940000Y-91440000D02*
X213480000Y-91440000D01*
X210940000Y-88900000D02*
X213480000Y-88900000D01*
X210940000Y-86360000D02*
X213480000Y-86360000D01*
%TO.C,U3*%
D10*
X138938095Y-68496380D02*
X138938095Y-69305904D01*
X138985714Y-69401142D01*
X139033333Y-69448761D01*
X139128571Y-69496380D01*
X139319047Y-69496380D01*
X139414285Y-69448761D01*
X139461904Y-69401142D01*
X139509523Y-69305904D01*
X139509523Y-68496380D01*
X139890476Y-68496380D02*
X140509523Y-68496380D01*
X140176190Y-68877333D01*
X140319047Y-68877333D01*
X140414285Y-68924952D01*
X140461904Y-68972571D01*
X140509523Y-69067809D01*
X140509523Y-69305904D01*
X140461904Y-69401142D01*
X140414285Y-69448761D01*
X140319047Y-69496380D01*
X140033333Y-69496380D01*
X139938095Y-69448761D01*
X139890476Y-69401142D01*
%TO.C,R1*%
X146884380Y-75105666D02*
X146408190Y-75439000D01*
X146884380Y-75677095D02*
X145884380Y-75677095D01*
X145884380Y-75296142D01*
X145932000Y-75200904D01*
X145979619Y-75153285D01*
X146074857Y-75105666D01*
X146217714Y-75105666D01*
X146312952Y-75153285D01*
X146360571Y-75200904D01*
X146408190Y-75296142D01*
X146408190Y-75677095D01*
X146884380Y-74153285D02*
X146884380Y-74724714D01*
X146884380Y-74439000D02*
X145884380Y-74439000D01*
X146027238Y-74534238D01*
X146122476Y-74629476D01*
X146170095Y-74724714D01*
%TO.C,Q1*%
X181260761Y-135681619D02*
X181165523Y-135634000D01*
X181070285Y-135538761D01*
X180927428Y-135395904D01*
X180832190Y-135348285D01*
X180736952Y-135348285D01*
X180784571Y-135586380D02*
X180689333Y-135538761D01*
X180594095Y-135443523D01*
X180546476Y-135253047D01*
X180546476Y-134919714D01*
X180594095Y-134729238D01*
X180689333Y-134634000D01*
X180784571Y-134586380D01*
X180975047Y-134586380D01*
X181070285Y-134634000D01*
X181165523Y-134729238D01*
X181213142Y-134919714D01*
X181213142Y-135253047D01*
X181165523Y-135443523D01*
X181070285Y-135538761D01*
X180975047Y-135586380D01*
X180784571Y-135586380D01*
X182165523Y-135586380D02*
X181594095Y-135586380D01*
X181879809Y-135586380D02*
X181879809Y-134586380D01*
X181784571Y-134729238D01*
X181689333Y-134824476D01*
X181594095Y-134872095D01*
%TO.C,D2*%
X191539904Y-135586380D02*
X191539904Y-134586380D01*
X191778000Y-134586380D01*
X191920857Y-134634000D01*
X192016095Y-134729238D01*
X192063714Y-134824476D01*
X192111333Y-135014952D01*
X192111333Y-135157809D01*
X192063714Y-135348285D01*
X192016095Y-135443523D01*
X191920857Y-135538761D01*
X191778000Y-135586380D01*
X191539904Y-135586380D01*
X192492285Y-134681619D02*
X192539904Y-134634000D01*
X192635142Y-134586380D01*
X192873238Y-134586380D01*
X192968476Y-134634000D01*
X193016095Y-134681619D01*
X193063714Y-134776857D01*
X193063714Y-134872095D01*
X193016095Y-135014952D01*
X192444666Y-135586380D01*
X193063714Y-135586380D01*
%TO.C,C2*%
X110078333Y-126467142D02*
X110030714Y-126514761D01*
X109887857Y-126562380D01*
X109792619Y-126562380D01*
X109649761Y-126514761D01*
X109554523Y-126419523D01*
X109506904Y-126324285D01*
X109459285Y-126133809D01*
X109459285Y-125990952D01*
X109506904Y-125800476D01*
X109554523Y-125705238D01*
X109649761Y-125610000D01*
X109792619Y-125562380D01*
X109887857Y-125562380D01*
X110030714Y-125610000D01*
X110078333Y-125657619D01*
X110459285Y-125657619D02*
X110506904Y-125610000D01*
X110602142Y-125562380D01*
X110840238Y-125562380D01*
X110935476Y-125610000D01*
X110983095Y-125657619D01*
X111030714Y-125752857D01*
X111030714Y-125848095D01*
X110983095Y-125990952D01*
X110411666Y-126562380D01*
X111030714Y-126562380D01*
%TO.C,C3*%
X131802142Y-89701666D02*
X131849761Y-89749285D01*
X131897380Y-89892142D01*
X131897380Y-89987380D01*
X131849761Y-90130238D01*
X131754523Y-90225476D01*
X131659285Y-90273095D01*
X131468809Y-90320714D01*
X131325952Y-90320714D01*
X131135476Y-90273095D01*
X131040238Y-90225476D01*
X130945000Y-90130238D01*
X130897380Y-89987380D01*
X130897380Y-89892142D01*
X130945000Y-89749285D01*
X130992619Y-89701666D01*
X130897380Y-89368333D02*
X130897380Y-88749285D01*
X131278333Y-89082619D01*
X131278333Y-88939761D01*
X131325952Y-88844523D01*
X131373571Y-88796904D01*
X131468809Y-88749285D01*
X131706904Y-88749285D01*
X131802142Y-88796904D01*
X131849761Y-88844523D01*
X131897380Y-88939761D01*
X131897380Y-89225476D01*
X131849761Y-89320714D01*
X131802142Y-89368333D01*
%TO.C,C4*%
X159147142Y-106886666D02*
X159194761Y-106934285D01*
X159242380Y-107077142D01*
X159242380Y-107172380D01*
X159194761Y-107315238D01*
X159099523Y-107410476D01*
X159004285Y-107458095D01*
X158813809Y-107505714D01*
X158670952Y-107505714D01*
X158480476Y-107458095D01*
X158385238Y-107410476D01*
X158290000Y-107315238D01*
X158242380Y-107172380D01*
X158242380Y-107077142D01*
X158290000Y-106934285D01*
X158337619Y-106886666D01*
X158575714Y-106029523D02*
X159242380Y-106029523D01*
X158194761Y-106267619D02*
X158909047Y-106505714D01*
X158909047Y-105886666D01*
%TO.C,C5*%
X214193333Y-74712142D02*
X214145714Y-74759761D01*
X214002857Y-74807380D01*
X213907619Y-74807380D01*
X213764761Y-74759761D01*
X213669523Y-74664523D01*
X213621904Y-74569285D01*
X213574285Y-74378809D01*
X213574285Y-74235952D01*
X213621904Y-74045476D01*
X213669523Y-73950238D01*
X213764761Y-73855000D01*
X213907619Y-73807380D01*
X214002857Y-73807380D01*
X214145714Y-73855000D01*
X214193333Y-73902619D01*
X215098095Y-73807380D02*
X214621904Y-73807380D01*
X214574285Y-74283571D01*
X214621904Y-74235952D01*
X214717142Y-74188333D01*
X214955238Y-74188333D01*
X215050476Y-74235952D01*
X215098095Y-74283571D01*
X215145714Y-74378809D01*
X215145714Y-74616904D01*
X215098095Y-74712142D01*
X215050476Y-74759761D01*
X214955238Y-74807380D01*
X214717142Y-74807380D01*
X214621904Y-74759761D01*
X214574285Y-74712142D01*
%TO.C,C6*%
X207208333Y-74712142D02*
X207160714Y-74759761D01*
X207017857Y-74807380D01*
X206922619Y-74807380D01*
X206779761Y-74759761D01*
X206684523Y-74664523D01*
X206636904Y-74569285D01*
X206589285Y-74378809D01*
X206589285Y-74235952D01*
X206636904Y-74045476D01*
X206684523Y-73950238D01*
X206779761Y-73855000D01*
X206922619Y-73807380D01*
X207017857Y-73807380D01*
X207160714Y-73855000D01*
X207208333Y-73902619D01*
X208065476Y-73807380D02*
X207875000Y-73807380D01*
X207779761Y-73855000D01*
X207732142Y-73902619D01*
X207636904Y-74045476D01*
X207589285Y-74235952D01*
X207589285Y-74616904D01*
X207636904Y-74712142D01*
X207684523Y-74759761D01*
X207779761Y-74807380D01*
X207970238Y-74807380D01*
X208065476Y-74759761D01*
X208113095Y-74712142D01*
X208160714Y-74616904D01*
X208160714Y-74378809D01*
X208113095Y-74283571D01*
X208065476Y-74235952D01*
X207970238Y-74188333D01*
X207779761Y-74188333D01*
X207684523Y-74235952D01*
X207636904Y-74283571D01*
X207589285Y-74378809D01*
%TO.C,C7*%
X125832142Y-58443266D02*
X125879761Y-58490885D01*
X125927380Y-58633742D01*
X125927380Y-58728980D01*
X125879761Y-58871838D01*
X125784523Y-58967076D01*
X125689285Y-59014695D01*
X125498809Y-59062314D01*
X125355952Y-59062314D01*
X125165476Y-59014695D01*
X125070238Y-58967076D01*
X124975000Y-58871838D01*
X124927380Y-58728980D01*
X124927380Y-58633742D01*
X124975000Y-58490885D01*
X125022619Y-58443266D01*
X124927380Y-58109933D02*
X124927380Y-57443266D01*
X125927380Y-57871838D01*
%TO.C,C8*%
X216157142Y-108076666D02*
X216204761Y-108124285D01*
X216252380Y-108267142D01*
X216252380Y-108362380D01*
X216204761Y-108505238D01*
X216109523Y-108600476D01*
X216014285Y-108648095D01*
X215823809Y-108695714D01*
X215680952Y-108695714D01*
X215490476Y-108648095D01*
X215395238Y-108600476D01*
X215300000Y-108505238D01*
X215252380Y-108362380D01*
X215252380Y-108267142D01*
X215300000Y-108124285D01*
X215347619Y-108076666D01*
X215680952Y-107505238D02*
X215633333Y-107600476D01*
X215585714Y-107648095D01*
X215490476Y-107695714D01*
X215442857Y-107695714D01*
X215347619Y-107648095D01*
X215300000Y-107600476D01*
X215252380Y-107505238D01*
X215252380Y-107314761D01*
X215300000Y-107219523D01*
X215347619Y-107171904D01*
X215442857Y-107124285D01*
X215490476Y-107124285D01*
X215585714Y-107171904D01*
X215633333Y-107219523D01*
X215680952Y-107314761D01*
X215680952Y-107505238D01*
X215728571Y-107600476D01*
X215776190Y-107648095D01*
X215871428Y-107695714D01*
X216061904Y-107695714D01*
X216157142Y-107648095D01*
X216204761Y-107600476D01*
X216252380Y-107505238D01*
X216252380Y-107314761D01*
X216204761Y-107219523D01*
X216157142Y-107171904D01*
X216061904Y-107124285D01*
X215871428Y-107124285D01*
X215776190Y-107171904D01*
X215728571Y-107219523D01*
X215680952Y-107314761D01*
%TO.C,C9*%
X140763333Y-114027142D02*
X140715714Y-114074761D01*
X140572857Y-114122380D01*
X140477619Y-114122380D01*
X140334761Y-114074761D01*
X140239523Y-113979523D01*
X140191904Y-113884285D01*
X140144285Y-113693809D01*
X140144285Y-113550952D01*
X140191904Y-113360476D01*
X140239523Y-113265238D01*
X140334761Y-113170000D01*
X140477619Y-113122380D01*
X140572857Y-113122380D01*
X140715714Y-113170000D01*
X140763333Y-113217619D01*
X141239523Y-114122380D02*
X141430000Y-114122380D01*
X141525238Y-114074761D01*
X141572857Y-114027142D01*
X141668095Y-113884285D01*
X141715714Y-113693809D01*
X141715714Y-113312857D01*
X141668095Y-113217619D01*
X141620476Y-113170000D01*
X141525238Y-113122380D01*
X141334761Y-113122380D01*
X141239523Y-113170000D01*
X141191904Y-113217619D01*
X141144285Y-113312857D01*
X141144285Y-113550952D01*
X141191904Y-113646190D01*
X141239523Y-113693809D01*
X141334761Y-113741428D01*
X141525238Y-113741428D01*
X141620476Y-113693809D01*
X141668095Y-113646190D01*
X141715714Y-113550952D01*
%TO.C,D1*%
X164361904Y-113482380D02*
X164361904Y-112482380D01*
X164600000Y-112482380D01*
X164742857Y-112530000D01*
X164838095Y-112625238D01*
X164885714Y-112720476D01*
X164933333Y-112910952D01*
X164933333Y-113053809D01*
X164885714Y-113244285D01*
X164838095Y-113339523D01*
X164742857Y-113434761D01*
X164600000Y-113482380D01*
X164361904Y-113482380D01*
X165885714Y-113482380D02*
X165314285Y-113482380D01*
X165600000Y-113482380D02*
X165600000Y-112482380D01*
X165504761Y-112625238D01*
X165409523Y-112720476D01*
X165314285Y-112768095D01*
%TO.C,J1*%
X85264666Y-84498380D02*
X85264666Y-85212666D01*
X85217047Y-85355523D01*
X85121809Y-85450761D01*
X84978952Y-85498380D01*
X84883714Y-85498380D01*
X86264666Y-85498380D02*
X85693238Y-85498380D01*
X85978952Y-85498380D02*
X85978952Y-84498380D01*
X85883714Y-84641238D01*
X85788476Y-84736476D01*
X85693238Y-84784095D01*
%TO.C,J2*%
X127678380Y-63325333D02*
X128392666Y-63325333D01*
X128535523Y-63372952D01*
X128630761Y-63468190D01*
X128678380Y-63611047D01*
X128678380Y-63706285D01*
X127773619Y-62896761D02*
X127726000Y-62849142D01*
X127678380Y-62753904D01*
X127678380Y-62515809D01*
X127726000Y-62420571D01*
X127773619Y-62372952D01*
X127868857Y-62325333D01*
X127964095Y-62325333D01*
X128106952Y-62372952D01*
X128678380Y-62944380D01*
X128678380Y-62325333D01*
%TO.C,J3*%
X203252380Y-63003333D02*
X203966666Y-63003333D01*
X204109523Y-63050952D01*
X204204761Y-63146190D01*
X204252380Y-63289047D01*
X204252380Y-63384285D01*
X203252380Y-62622380D02*
X203252380Y-62003333D01*
X203633333Y-62336666D01*
X203633333Y-62193809D01*
X203680952Y-62098571D01*
X203728571Y-62050952D01*
X203823809Y-62003333D01*
X204061904Y-62003333D01*
X204157142Y-62050952D01*
X204204761Y-62098571D01*
X204252380Y-62193809D01*
X204252380Y-62479523D01*
X204204761Y-62574761D01*
X204157142Y-62622380D01*
%TO.C,L1*%
X127537380Y-93729166D02*
X127537380Y-94205357D01*
X126537380Y-94205357D01*
X127537380Y-92872023D02*
X127537380Y-93443452D01*
X127537380Y-93157738D02*
X126537380Y-93157738D01*
X126680238Y-93252976D01*
X126775476Y-93348214D01*
X126823095Y-93443452D01*
%TO.C,L2*%
X208748333Y-128932380D02*
X208272142Y-128932380D01*
X208272142Y-127932380D01*
X209034047Y-128027619D02*
X209081666Y-127980000D01*
X209176904Y-127932380D01*
X209415000Y-127932380D01*
X209510238Y-127980000D01*
X209557857Y-128027619D01*
X209605476Y-128122857D01*
X209605476Y-128218095D01*
X209557857Y-128360952D01*
X208986428Y-128932380D01*
X209605476Y-128932380D01*
%TO.C,R2*%
X118823333Y-124912380D02*
X118490000Y-124436190D01*
X118251904Y-124912380D02*
X118251904Y-123912380D01*
X118632857Y-123912380D01*
X118728095Y-123960000D01*
X118775714Y-124007619D01*
X118823333Y-124102857D01*
X118823333Y-124245714D01*
X118775714Y-124340952D01*
X118728095Y-124388571D01*
X118632857Y-124436190D01*
X118251904Y-124436190D01*
X119204285Y-124007619D02*
X119251904Y-123960000D01*
X119347142Y-123912380D01*
X119585238Y-123912380D01*
X119680476Y-123960000D01*
X119728095Y-124007619D01*
X119775714Y-124102857D01*
X119775714Y-124198095D01*
X119728095Y-124340952D01*
X119156666Y-124912380D01*
X119775714Y-124912380D01*
%TO.C,R3*%
X180173333Y-112974380D02*
X179840000Y-112498190D01*
X179601904Y-112974380D02*
X179601904Y-111974380D01*
X179982857Y-111974380D01*
X180078095Y-112022000D01*
X180125714Y-112069619D01*
X180173333Y-112164857D01*
X180173333Y-112307714D01*
X180125714Y-112402952D01*
X180078095Y-112450571D01*
X179982857Y-112498190D01*
X179601904Y-112498190D01*
X180506666Y-111974380D02*
X181125714Y-111974380D01*
X180792380Y-112355333D01*
X180935238Y-112355333D01*
X181030476Y-112402952D01*
X181078095Y-112450571D01*
X181125714Y-112545809D01*
X181125714Y-112783904D01*
X181078095Y-112879142D01*
X181030476Y-112926761D01*
X180935238Y-112974380D01*
X180649523Y-112974380D01*
X180554285Y-112926761D01*
X180506666Y-112879142D01*
%TO.C,R4*%
X177125333Y-112974380D02*
X176792000Y-112498190D01*
X176553904Y-112974380D02*
X176553904Y-111974380D01*
X176934857Y-111974380D01*
X177030095Y-112022000D01*
X177077714Y-112069619D01*
X177125333Y-112164857D01*
X177125333Y-112307714D01*
X177077714Y-112402952D01*
X177030095Y-112450571D01*
X176934857Y-112498190D01*
X176553904Y-112498190D01*
X177982476Y-112307714D02*
X177982476Y-112974380D01*
X177744380Y-111926761D02*
X177506285Y-112641047D01*
X178125333Y-112641047D01*
%TO.C,R5*%
X183840380Y-100496666D02*
X183364190Y-100830000D01*
X183840380Y-101068095D02*
X182840380Y-101068095D01*
X182840380Y-100687142D01*
X182888000Y-100591904D01*
X182935619Y-100544285D01*
X183030857Y-100496666D01*
X183173714Y-100496666D01*
X183268952Y-100544285D01*
X183316571Y-100591904D01*
X183364190Y-100687142D01*
X183364190Y-101068095D01*
X182840380Y-99591904D02*
X182840380Y-100068095D01*
X183316571Y-100115714D01*
X183268952Y-100068095D01*
X183221333Y-99972857D01*
X183221333Y-99734761D01*
X183268952Y-99639523D01*
X183316571Y-99591904D01*
X183411809Y-99544285D01*
X183649904Y-99544285D01*
X183745142Y-99591904D01*
X183792761Y-99639523D01*
X183840380Y-99734761D01*
X183840380Y-99972857D01*
X183792761Y-100068095D01*
X183745142Y-100115714D01*
%TO.C,R6*%
X172553333Y-97226380D02*
X172220000Y-96750190D01*
X171981904Y-97226380D02*
X171981904Y-96226380D01*
X172362857Y-96226380D01*
X172458095Y-96274000D01*
X172505714Y-96321619D01*
X172553333Y-96416857D01*
X172553333Y-96559714D01*
X172505714Y-96654952D01*
X172458095Y-96702571D01*
X172362857Y-96750190D01*
X171981904Y-96750190D01*
X173410476Y-96226380D02*
X173220000Y-96226380D01*
X173124761Y-96274000D01*
X173077142Y-96321619D01*
X172981904Y-96464476D01*
X172934285Y-96654952D01*
X172934285Y-97035904D01*
X172981904Y-97131142D01*
X173029523Y-97178761D01*
X173124761Y-97226380D01*
X173315238Y-97226380D01*
X173410476Y-97178761D01*
X173458095Y-97131142D01*
X173505714Y-97035904D01*
X173505714Y-96797809D01*
X173458095Y-96702571D01*
X173410476Y-96654952D01*
X173315238Y-96607333D01*
X173124761Y-96607333D01*
X173029523Y-96654952D01*
X172981904Y-96702571D01*
X172934285Y-96797809D01*
%TO.C,R7*%
X163028333Y-66492380D02*
X162695000Y-66016190D01*
X162456904Y-66492380D02*
X162456904Y-65492380D01*
X162837857Y-65492380D01*
X162933095Y-65540000D01*
X162980714Y-65587619D01*
X163028333Y-65682857D01*
X163028333Y-65825714D01*
X162980714Y-65920952D01*
X162933095Y-65968571D01*
X162837857Y-66016190D01*
X162456904Y-66016190D01*
X163361666Y-65492380D02*
X164028333Y-65492380D01*
X163599761Y-66492380D01*
%TO.C,R8*%
X187142380Y-100496666D02*
X186666190Y-100830000D01*
X187142380Y-101068095D02*
X186142380Y-101068095D01*
X186142380Y-100687142D01*
X186190000Y-100591904D01*
X186237619Y-100544285D01*
X186332857Y-100496666D01*
X186475714Y-100496666D01*
X186570952Y-100544285D01*
X186618571Y-100591904D01*
X186666190Y-100687142D01*
X186666190Y-101068095D01*
X186570952Y-99925238D02*
X186523333Y-100020476D01*
X186475714Y-100068095D01*
X186380476Y-100115714D01*
X186332857Y-100115714D01*
X186237619Y-100068095D01*
X186190000Y-100020476D01*
X186142380Y-99925238D01*
X186142380Y-99734761D01*
X186190000Y-99639523D01*
X186237619Y-99591904D01*
X186332857Y-99544285D01*
X186380476Y-99544285D01*
X186475714Y-99591904D01*
X186523333Y-99639523D01*
X186570952Y-99734761D01*
X186570952Y-99925238D01*
X186618571Y-100020476D01*
X186666190Y-100068095D01*
X186761428Y-100115714D01*
X186951904Y-100115714D01*
X187047142Y-100068095D01*
X187094761Y-100020476D01*
X187142380Y-99925238D01*
X187142380Y-99734761D01*
X187094761Y-99639523D01*
X187047142Y-99591904D01*
X186951904Y-99544285D01*
X186761428Y-99544285D01*
X186666190Y-99591904D01*
X186618571Y-99639523D01*
X186570952Y-99734761D01*
%TO.C,R9*%
X193492380Y-100496666D02*
X193016190Y-100830000D01*
X193492380Y-101068095D02*
X192492380Y-101068095D01*
X192492380Y-100687142D01*
X192540000Y-100591904D01*
X192587619Y-100544285D01*
X192682857Y-100496666D01*
X192825714Y-100496666D01*
X192920952Y-100544285D01*
X192968571Y-100591904D01*
X193016190Y-100687142D01*
X193016190Y-101068095D01*
X193492380Y-100020476D02*
X193492380Y-99830000D01*
X193444761Y-99734761D01*
X193397142Y-99687142D01*
X193254285Y-99591904D01*
X193063809Y-99544285D01*
X192682857Y-99544285D01*
X192587619Y-99591904D01*
X192540000Y-99639523D01*
X192492380Y-99734761D01*
X192492380Y-99925238D01*
X192540000Y-100020476D01*
X192587619Y-100068095D01*
X192682857Y-100115714D01*
X192920952Y-100115714D01*
X193016190Y-100068095D01*
X193063809Y-100020476D01*
X193111428Y-99925238D01*
X193111428Y-99734761D01*
X193063809Y-99639523D01*
X193016190Y-99591904D01*
X192920952Y-99544285D01*
%TO.C,R10*%
X172712142Y-66492380D02*
X172378809Y-66016190D01*
X172140714Y-66492380D02*
X172140714Y-65492380D01*
X172521666Y-65492380D01*
X172616904Y-65540000D01*
X172664523Y-65587619D01*
X172712142Y-65682857D01*
X172712142Y-65825714D01*
X172664523Y-65920952D01*
X172616904Y-65968571D01*
X172521666Y-66016190D01*
X172140714Y-66016190D01*
X173664523Y-66492380D02*
X173093095Y-66492380D01*
X173378809Y-66492380D02*
X173378809Y-65492380D01*
X173283571Y-65635238D01*
X173188333Y-65730476D01*
X173093095Y-65778095D01*
X174283571Y-65492380D02*
X174378809Y-65492380D01*
X174474047Y-65540000D01*
X174521666Y-65587619D01*
X174569285Y-65682857D01*
X174616904Y-65873333D01*
X174616904Y-66111428D01*
X174569285Y-66301904D01*
X174521666Y-66397142D01*
X174474047Y-66444761D01*
X174378809Y-66492380D01*
X174283571Y-66492380D01*
X174188333Y-66444761D01*
X174140714Y-66397142D01*
X174093095Y-66301904D01*
X174045476Y-66111428D01*
X174045476Y-65873333D01*
X174093095Y-65682857D01*
X174140714Y-65587619D01*
X174188333Y-65540000D01*
X174283571Y-65492380D01*
%TO.C,R11*%
X190190380Y-100718857D02*
X189714190Y-101052190D01*
X190190380Y-101290285D02*
X189190380Y-101290285D01*
X189190380Y-100909333D01*
X189238000Y-100814095D01*
X189285619Y-100766476D01*
X189380857Y-100718857D01*
X189523714Y-100718857D01*
X189618952Y-100766476D01*
X189666571Y-100814095D01*
X189714190Y-100909333D01*
X189714190Y-101290285D01*
X190190380Y-99766476D02*
X190190380Y-100337904D01*
X190190380Y-100052190D02*
X189190380Y-100052190D01*
X189333238Y-100147428D01*
X189428476Y-100242666D01*
X189476095Y-100337904D01*
X190190380Y-98814095D02*
X190190380Y-99385523D01*
X190190380Y-99099809D02*
X189190380Y-99099809D01*
X189333238Y-99195047D01*
X189428476Y-99290285D01*
X189476095Y-99385523D01*
%TO.C,R12*%
X196540380Y-100718857D02*
X196064190Y-101052190D01*
X196540380Y-101290285D02*
X195540380Y-101290285D01*
X195540380Y-100909333D01*
X195588000Y-100814095D01*
X195635619Y-100766476D01*
X195730857Y-100718857D01*
X195873714Y-100718857D01*
X195968952Y-100766476D01*
X196016571Y-100814095D01*
X196064190Y-100909333D01*
X196064190Y-101290285D01*
X196540380Y-99766476D02*
X196540380Y-100337904D01*
X196540380Y-100052190D02*
X195540380Y-100052190D01*
X195683238Y-100147428D01*
X195778476Y-100242666D01*
X195826095Y-100337904D01*
X195635619Y-99385523D02*
X195588000Y-99337904D01*
X195540380Y-99242666D01*
X195540380Y-99004571D01*
X195588000Y-98909333D01*
X195635619Y-98861714D01*
X195730857Y-98814095D01*
X195826095Y-98814095D01*
X195968952Y-98861714D01*
X196540380Y-99433142D01*
X196540380Y-98814095D01*
%TO.C,R13*%
X182872142Y-66492380D02*
X182538809Y-66016190D01*
X182300714Y-66492380D02*
X182300714Y-65492380D01*
X182681666Y-65492380D01*
X182776904Y-65540000D01*
X182824523Y-65587619D01*
X182872142Y-65682857D01*
X182872142Y-65825714D01*
X182824523Y-65920952D01*
X182776904Y-65968571D01*
X182681666Y-66016190D01*
X182300714Y-66016190D01*
X183824523Y-66492380D02*
X183253095Y-66492380D01*
X183538809Y-66492380D02*
X183538809Y-65492380D01*
X183443571Y-65635238D01*
X183348333Y-65730476D01*
X183253095Y-65778095D01*
X184157857Y-65492380D02*
X184776904Y-65492380D01*
X184443571Y-65873333D01*
X184586428Y-65873333D01*
X184681666Y-65920952D01*
X184729285Y-65968571D01*
X184776904Y-66063809D01*
X184776904Y-66301904D01*
X184729285Y-66397142D01*
X184681666Y-66444761D01*
X184586428Y-66492380D01*
X184300714Y-66492380D01*
X184205476Y-66444761D01*
X184157857Y-66397142D01*
%TO.C,R14*%
X192397142Y-66492380D02*
X192063809Y-66016190D01*
X191825714Y-66492380D02*
X191825714Y-65492380D01*
X192206666Y-65492380D01*
X192301904Y-65540000D01*
X192349523Y-65587619D01*
X192397142Y-65682857D01*
X192397142Y-65825714D01*
X192349523Y-65920952D01*
X192301904Y-65968571D01*
X192206666Y-66016190D01*
X191825714Y-66016190D01*
X193349523Y-66492380D02*
X192778095Y-66492380D01*
X193063809Y-66492380D02*
X193063809Y-65492380D01*
X192968571Y-65635238D01*
X192873333Y-65730476D01*
X192778095Y-65778095D01*
X194206666Y-65825714D02*
X194206666Y-66492380D01*
X193968571Y-65444761D02*
X193730476Y-66159047D01*
X194349523Y-66159047D01*
%TO.C,R15*%
X146677142Y-103322380D02*
X146343809Y-102846190D01*
X146105714Y-103322380D02*
X146105714Y-102322380D01*
X146486666Y-102322380D01*
X146581904Y-102370000D01*
X146629523Y-102417619D01*
X146677142Y-102512857D01*
X146677142Y-102655714D01*
X146629523Y-102750952D01*
X146581904Y-102798571D01*
X146486666Y-102846190D01*
X146105714Y-102846190D01*
X147629523Y-103322380D02*
X147058095Y-103322380D01*
X147343809Y-103322380D02*
X147343809Y-102322380D01*
X147248571Y-102465238D01*
X147153333Y-102560476D01*
X147058095Y-102608095D01*
X148534285Y-102322380D02*
X148058095Y-102322380D01*
X148010476Y-102798571D01*
X148058095Y-102750952D01*
X148153333Y-102703333D01*
X148391428Y-102703333D01*
X148486666Y-102750952D01*
X148534285Y-102798571D01*
X148581904Y-102893809D01*
X148581904Y-103131904D01*
X148534285Y-103227142D01*
X148486666Y-103274761D01*
X148391428Y-103322380D01*
X148153333Y-103322380D01*
X148058095Y-103274761D01*
X148010476Y-103227142D01*
%TO.C,RV1*%
X170346761Y-123134380D02*
X170013428Y-122658190D01*
X169775333Y-123134380D02*
X169775333Y-122134380D01*
X170156285Y-122134380D01*
X170251523Y-122182000D01*
X170299142Y-122229619D01*
X170346761Y-122324857D01*
X170346761Y-122467714D01*
X170299142Y-122562952D01*
X170251523Y-122610571D01*
X170156285Y-122658190D01*
X169775333Y-122658190D01*
X170632476Y-122134380D02*
X170965809Y-123134380D01*
X171299142Y-122134380D01*
X172156285Y-123134380D02*
X171584857Y-123134380D01*
X171870571Y-123134380D02*
X171870571Y-122134380D01*
X171775333Y-122277238D01*
X171680095Y-122372476D01*
X171584857Y-122420095D01*
%TO.C,SW1*%
X97166666Y-127944761D02*
X97309523Y-127992380D01*
X97547619Y-127992380D01*
X97642857Y-127944761D01*
X97690476Y-127897142D01*
X97738095Y-127801904D01*
X97738095Y-127706666D01*
X97690476Y-127611428D01*
X97642857Y-127563809D01*
X97547619Y-127516190D01*
X97357142Y-127468571D01*
X97261904Y-127420952D01*
X97214285Y-127373333D01*
X97166666Y-127278095D01*
X97166666Y-127182857D01*
X97214285Y-127087619D01*
X97261904Y-127040000D01*
X97357142Y-126992380D01*
X97595238Y-126992380D01*
X97738095Y-127040000D01*
X98071428Y-126992380D02*
X98309523Y-127992380D01*
X98500000Y-127278095D01*
X98690476Y-127992380D01*
X98928571Y-126992380D01*
X99833333Y-127992380D02*
X99261904Y-127992380D01*
X99547619Y-127992380D02*
X99547619Y-126992380D01*
X99452380Y-127135238D01*
X99357142Y-127230476D01*
X99261904Y-127278095D01*
%TO.C,SW2*%
X111136666Y-127944761D02*
X111279523Y-127992380D01*
X111517619Y-127992380D01*
X111612857Y-127944761D01*
X111660476Y-127897142D01*
X111708095Y-127801904D01*
X111708095Y-127706666D01*
X111660476Y-127611428D01*
X111612857Y-127563809D01*
X111517619Y-127516190D01*
X111327142Y-127468571D01*
X111231904Y-127420952D01*
X111184285Y-127373333D01*
X111136666Y-127278095D01*
X111136666Y-127182857D01*
X111184285Y-127087619D01*
X111231904Y-127040000D01*
X111327142Y-126992380D01*
X111565238Y-126992380D01*
X111708095Y-127040000D01*
X112041428Y-126992380D02*
X112279523Y-127992380D01*
X112470000Y-127278095D01*
X112660476Y-127992380D01*
X112898571Y-126992380D01*
X113231904Y-127087619D02*
X113279523Y-127040000D01*
X113374761Y-126992380D01*
X113612857Y-126992380D01*
X113708095Y-127040000D01*
X113755714Y-127087619D01*
X113803333Y-127182857D01*
X113803333Y-127278095D01*
X113755714Y-127420952D01*
X113184285Y-127992380D01*
X113803333Y-127992380D01*
%TO.C,SW3*%
X165111666Y-56824761D02*
X165254523Y-56872380D01*
X165492619Y-56872380D01*
X165587857Y-56824761D01*
X165635476Y-56777142D01*
X165683095Y-56681904D01*
X165683095Y-56586666D01*
X165635476Y-56491428D01*
X165587857Y-56443809D01*
X165492619Y-56396190D01*
X165302142Y-56348571D01*
X165206904Y-56300952D01*
X165159285Y-56253333D01*
X165111666Y-56158095D01*
X165111666Y-56062857D01*
X165159285Y-55967619D01*
X165206904Y-55920000D01*
X165302142Y-55872380D01*
X165540238Y-55872380D01*
X165683095Y-55920000D01*
X166016428Y-55872380D02*
X166254523Y-56872380D01*
X166445000Y-56158095D01*
X166635476Y-56872380D01*
X166873571Y-55872380D01*
X167159285Y-55872380D02*
X167778333Y-55872380D01*
X167445000Y-56253333D01*
X167587857Y-56253333D01*
X167683095Y-56300952D01*
X167730714Y-56348571D01*
X167778333Y-56443809D01*
X167778333Y-56681904D01*
X167730714Y-56777142D01*
X167683095Y-56824761D01*
X167587857Y-56872380D01*
X167302142Y-56872380D01*
X167206904Y-56824761D01*
X167159285Y-56777142D01*
%TO.C,SW4*%
X175271666Y-56824761D02*
X175414523Y-56872380D01*
X175652619Y-56872380D01*
X175747857Y-56824761D01*
X175795476Y-56777142D01*
X175843095Y-56681904D01*
X175843095Y-56586666D01*
X175795476Y-56491428D01*
X175747857Y-56443809D01*
X175652619Y-56396190D01*
X175462142Y-56348571D01*
X175366904Y-56300952D01*
X175319285Y-56253333D01*
X175271666Y-56158095D01*
X175271666Y-56062857D01*
X175319285Y-55967619D01*
X175366904Y-55920000D01*
X175462142Y-55872380D01*
X175700238Y-55872380D01*
X175843095Y-55920000D01*
X176176428Y-55872380D02*
X176414523Y-56872380D01*
X176605000Y-56158095D01*
X176795476Y-56872380D01*
X177033571Y-55872380D01*
X177843095Y-56205714D02*
X177843095Y-56872380D01*
X177605000Y-55824761D02*
X177366904Y-56539047D01*
X177985952Y-56539047D01*
%TO.C,SW5*%
X185431666Y-56824761D02*
X185574523Y-56872380D01*
X185812619Y-56872380D01*
X185907857Y-56824761D01*
X185955476Y-56777142D01*
X186003095Y-56681904D01*
X186003095Y-56586666D01*
X185955476Y-56491428D01*
X185907857Y-56443809D01*
X185812619Y-56396190D01*
X185622142Y-56348571D01*
X185526904Y-56300952D01*
X185479285Y-56253333D01*
X185431666Y-56158095D01*
X185431666Y-56062857D01*
X185479285Y-55967619D01*
X185526904Y-55920000D01*
X185622142Y-55872380D01*
X185860238Y-55872380D01*
X186003095Y-55920000D01*
X186336428Y-55872380D02*
X186574523Y-56872380D01*
X186765000Y-56158095D01*
X186955476Y-56872380D01*
X187193571Y-55872380D01*
X188050714Y-55872380D02*
X187574523Y-55872380D01*
X187526904Y-56348571D01*
X187574523Y-56300952D01*
X187669761Y-56253333D01*
X187907857Y-56253333D01*
X188003095Y-56300952D01*
X188050714Y-56348571D01*
X188098333Y-56443809D01*
X188098333Y-56681904D01*
X188050714Y-56777142D01*
X188003095Y-56824761D01*
X187907857Y-56872380D01*
X187669761Y-56872380D01*
X187574523Y-56824761D01*
X187526904Y-56777142D01*
%TO.C,SW6*%
X195591666Y-56824761D02*
X195734523Y-56872380D01*
X195972619Y-56872380D01*
X196067857Y-56824761D01*
X196115476Y-56777142D01*
X196163095Y-56681904D01*
X196163095Y-56586666D01*
X196115476Y-56491428D01*
X196067857Y-56443809D01*
X195972619Y-56396190D01*
X195782142Y-56348571D01*
X195686904Y-56300952D01*
X195639285Y-56253333D01*
X195591666Y-56158095D01*
X195591666Y-56062857D01*
X195639285Y-55967619D01*
X195686904Y-55920000D01*
X195782142Y-55872380D01*
X196020238Y-55872380D01*
X196163095Y-55920000D01*
X196496428Y-55872380D02*
X196734523Y-56872380D01*
X196925000Y-56158095D01*
X197115476Y-56872380D01*
X197353571Y-55872380D01*
X198163095Y-55872380D02*
X197972619Y-55872380D01*
X197877380Y-55920000D01*
X197829761Y-55967619D01*
X197734523Y-56110476D01*
X197686904Y-56300952D01*
X197686904Y-56681904D01*
X197734523Y-56777142D01*
X197782142Y-56824761D01*
X197877380Y-56872380D01*
X198067857Y-56872380D01*
X198163095Y-56824761D01*
X198210714Y-56777142D01*
X198258333Y-56681904D01*
X198258333Y-56443809D01*
X198210714Y-56348571D01*
X198163095Y-56300952D01*
X198067857Y-56253333D01*
X197877380Y-56253333D01*
X197782142Y-56300952D01*
X197734523Y-56348571D01*
X197686904Y-56443809D01*
%TO.C,T1*%
X138938095Y-86082380D02*
X139509523Y-86082380D01*
X139223809Y-87082380D02*
X139223809Y-86082380D01*
X140366666Y-87082380D02*
X139795238Y-87082380D01*
X140080952Y-87082380D02*
X140080952Y-86082380D01*
X139985714Y-86225238D01*
X139890476Y-86320476D01*
X139795238Y-86368095D01*
%TO.C,U1*%
X105918095Y-71842380D02*
X105918095Y-72651904D01*
X105965714Y-72747142D01*
X106013333Y-72794761D01*
X106108571Y-72842380D01*
X106299047Y-72842380D01*
X106394285Y-72794761D01*
X106441904Y-72747142D01*
X106489523Y-72651904D01*
X106489523Y-71842380D01*
X107489523Y-72842380D02*
X106918095Y-72842380D01*
X107203809Y-72842380D02*
X107203809Y-71842380D01*
X107108571Y-71985238D01*
X107013333Y-72080476D01*
X106918095Y-72128095D01*
%TO.C,U2*%
X193502380Y-89661904D02*
X194311904Y-89661904D01*
X194407142Y-89614285D01*
X194454761Y-89566666D01*
X194502380Y-89471428D01*
X194502380Y-89280952D01*
X194454761Y-89185714D01*
X194407142Y-89138095D01*
X194311904Y-89090476D01*
X193502380Y-89090476D01*
X193597619Y-88661904D02*
X193550000Y-88614285D01*
X193502380Y-88519047D01*
X193502380Y-88280952D01*
X193550000Y-88185714D01*
X193597619Y-88138095D01*
X193692857Y-88090476D01*
X193788095Y-88090476D01*
X193930952Y-88138095D01*
X194502380Y-88709523D01*
X194502380Y-88090476D01*
%TD*%
M02*
