%TF.GenerationSoftware,KiCad,Pcbnew,(5.1.6)-1*%
%TF.CreationDate,2020-11-21T12:12:01+09:00*%
%TF.ProjectId,nixieLogicV2,6e697869-654c-46f6-9769-6356322e6b69,rev?*%
%TF.SameCoordinates,Original*%
%TF.FileFunction,Legend,Bot*%
%TF.FilePolarity,Positive*%
%FSLAX46Y46*%
G04 Gerber Fmt 4.6, Leading zero omitted, Abs format (unit mm)*
G04 Created by KiCad (PCBNEW (5.1.6)-1) date 2020-11-21 12:12:01*
%MOMM*%
%LPD*%
G01*
G04 APERTURE LIST*
%ADD10C,0.150000*%
G04 APERTURE END LIST*
D10*
X84542380Y-71675047D02*
X85256666Y-71675047D01*
X85399523Y-71722666D01*
X85494761Y-71817904D01*
X85542380Y-71960761D01*
X85542380Y-72056000D01*
X85542380Y-70722666D02*
X85542380Y-71198857D01*
X84542380Y-71198857D01*
X85447142Y-69817904D02*
X85494761Y-69865523D01*
X85542380Y-70008380D01*
X85542380Y-70103619D01*
X85494761Y-70246476D01*
X85399523Y-70341714D01*
X85304285Y-70389333D01*
X85113809Y-70436952D01*
X84970952Y-70436952D01*
X84780476Y-70389333D01*
X84685238Y-70341714D01*
X84590000Y-70246476D01*
X84542380Y-70103619D01*
X84542380Y-70008380D01*
X84590000Y-69865523D01*
X84637619Y-69817904D01*
X84542380Y-69103619D02*
X85256666Y-69103619D01*
X85399523Y-69151238D01*
X85494761Y-69246476D01*
X85542380Y-69389333D01*
X85542380Y-69484571D01*
X85542380Y-68151238D02*
X85542380Y-68627428D01*
X84542380Y-68627428D01*
X85447142Y-67246476D02*
X85494761Y-67294095D01*
X85542380Y-67436952D01*
X85542380Y-67532190D01*
X85494761Y-67675047D01*
X85399523Y-67770285D01*
X85304285Y-67817904D01*
X85113809Y-67865523D01*
X84970952Y-67865523D01*
X84780476Y-67817904D01*
X84685238Y-67770285D01*
X84590000Y-67675047D01*
X84542380Y-67532190D01*
X84542380Y-67436952D01*
X84590000Y-67294095D01*
X84637619Y-67246476D01*
X84542380Y-66532190D02*
X85256666Y-66532190D01*
X85399523Y-66579809D01*
X85494761Y-66675047D01*
X85542380Y-66817904D01*
X85542380Y-66913142D01*
X85542380Y-65579809D02*
X85542380Y-66056000D01*
X84542380Y-66056000D01*
X85447142Y-64675047D02*
X85494761Y-64722666D01*
X85542380Y-64865523D01*
X85542380Y-64960761D01*
X85494761Y-65103619D01*
X85399523Y-65198857D01*
X85304285Y-65246476D01*
X85113809Y-65294095D01*
X84970952Y-65294095D01*
X84780476Y-65246476D01*
X84685238Y-65198857D01*
X84590000Y-65103619D01*
X84542380Y-64960761D01*
X84542380Y-64865523D01*
X84590000Y-64722666D01*
X84637619Y-64675047D01*
X84542380Y-63960761D02*
X85256666Y-63960761D01*
X85399523Y-64008380D01*
X85494761Y-64103619D01*
X85542380Y-64246476D01*
X85542380Y-64341714D01*
X85542380Y-63008380D02*
X85542380Y-63484571D01*
X84542380Y-63484571D01*
X85447142Y-62103619D02*
X85494761Y-62151238D01*
X85542380Y-62294095D01*
X85542380Y-62389333D01*
X85494761Y-62532190D01*
X85399523Y-62627428D01*
X85304285Y-62675047D01*
X85113809Y-62722666D01*
X84970952Y-62722666D01*
X84780476Y-62675047D01*
X84685238Y-62627428D01*
X84590000Y-62532190D01*
X84542380Y-62389333D01*
X84542380Y-62294095D01*
X84590000Y-62151238D01*
X84637619Y-62103619D01*
M02*
