M48
; DRILL file {KiCad (5.1.6)-1} date 11/21/20 12:12:04
; FORMAT={-:-/ absolute / inch / decimal}
; #@! TF.CreationDate,2020-11-21T12:12:04+09:00
; #@! TF.GenerationSoftware,Kicad,Pcbnew,(5.1.6)-1
FMAT,2
INCH
T1C0.0157
T2C0.0236
T3C0.0300
T4C0.0315
T5C0.0394
T6C0.0433
T7C0.0472
T8C0.0591
T9C0.1181
T10C0.1378
%
G90
G05
T1
X4.42Y-3.2
X4.47Y-3.16
X4.56Y-3.15
X4.56Y-3.25
X4.59Y-2.75
X4.64Y-3.3
X5.03Y-3.54
X5.13Y-3.92
X5.13Y-4.28
X5.15Y-2.8
X5.15Y-2.91
X5.15Y-3.77
X5.15Y-3.77
X5.59Y-2.24
X5.82Y-3.63
X5.98Y-2.9
X6.13Y-2.73
X6.27Y-2.47
X6.35Y-2.3402
X6.59Y-4.23
T2
X4.79Y-2.34
X5.98Y-3.04
X6.25Y-5.32
X6.28Y-2.86
X6.61Y-3.67
X7.1Y-3.64
T3
X3.7Y-2.25
X3.7Y-2.35
X3.7Y-2.45
X3.7Y-2.55
X3.7Y-2.65
X3.7Y-2.75
X3.7Y-2.85
X3.7Y-2.95
X3.7Y-3.05
X3.7Y-3.15
X3.7Y-3.25
X3.7Y-3.35
X3.7Y-3.45
X3.7Y-3.55
X3.7Y-3.65
X3.7Y-3.75
X3.7Y-3.85
X3.7Y-3.95
X3.7Y-4.05
X4.7Y-2.25
X4.7Y-2.35
X4.7Y-2.45
X4.7Y-2.55
X4.7Y-2.65
X4.7Y-2.75
X4.7Y-2.85
X4.7Y-2.95
X4.7Y-3.05
X4.7Y-3.15
X4.7Y-3.25
X4.7Y-3.35
X4.7Y-3.45
X4.7Y-3.55
X4.7Y-3.65
X4.7Y-3.75
X4.7Y-3.85
X4.7Y-3.95
X4.7Y-4.05
T4
X6.525Y-4.05
X6.525Y-4.35
X6.625Y-4.05
X6.625Y-4.35
X6.725Y-4.05
X6.725Y-4.35
X6.825Y-4.05
X6.825Y-4.35
X7.225Y-4.05
X7.225Y-4.35
X5.375Y-4.05
X5.675Y-4.05
X7.6Y-4.05
X7.6Y-4.35
X8.125Y-3.075
X8.2037Y-3.075
X7.1Y-4.05
X7.1Y-4.35
X7.35Y-4.05
X7.35Y-4.35
X8.4Y-3.075
X8.4787Y-3.075
X7.475Y-4.05
X7.475Y-4.35
X6.35Y-4.1031
X6.35Y-4.3
X6.625Y-4.625
X6.725Y-4.525
X6.825Y-4.625
X6.5Y-3.9
X7.1Y-3.9
X5.35Y-2.81
X5.35Y-2.91
X5.35Y-3.01
X5.35Y-3.11
X5.65Y-2.81
X5.65Y-2.91
X5.65Y-3.01
X5.65Y-3.11
X6.975Y-4.05
X6.975Y-4.35
X7.725Y-4.05
X7.725Y-4.35
T5
X8.25Y-4.15
X8.25Y-4.3469
X5.14Y-2.48
X5.24Y-2.48
X5.34Y-2.48
X5.44Y-2.48
X5.54Y-2.48
X5.64Y-2.48
X5.74Y-2.48
X5.84Y-2.48
X5.94Y-2.48
X6.04Y-2.48
X3.37Y-3.44
X3.37Y-3.54
X3.37Y-3.64
X3.37Y-3.74
X3.37Y-3.84
T6
X7.225Y-2.3
X7.225Y-2.4772
X7.4809Y-2.3
X7.4809Y-2.4772
X4.3Y-5.1
X4.3Y-5.2772
X4.5559Y-5.1
X4.5559Y-5.2772
X8.45Y-3.4
X8.45Y-3.5
X8.45Y-3.6
X7.47Y-4.51
X7.67Y-4.51
X6.825Y-2.3
X6.825Y-2.4772
X7.0809Y-2.3
X7.0809Y-2.4772
X7.04Y-4.51
X7.14Y-4.51
X7.24Y-4.51
X3.75Y-5.1
X3.75Y-5.2772
X4.0059Y-5.1
X4.0059Y-5.2772
X6.425Y-2.3
X6.425Y-2.4772
X6.6809Y-2.3
X6.6809Y-2.4772
X7.625Y-2.3
X7.625Y-2.4772
X7.8809Y-2.3
X7.8809Y-2.4772
T7
X5.45Y-4.8
X5.6469Y-4.8
T8
X8.225Y-4.65
X8.225Y-4.95
T9
X3.3575Y-2.2975
X3.358Y-5.262
X8.592Y-2.298
X8.592Y-5.262
T10
X7.7941Y-3.5
X7.57Y-5.1659
X7.14Y-5.1659
T5
G00X8.065Y-2.6425
M15
G01X8.065Y-2.7213
M16
G05
G00X8.2894Y-2.5638
M15
G01X8.2106Y-2.5638
M16
G05
G00X8.2894Y-2.8
M15
G01X8.2106Y-2.8
M16
G05
T0
M30
